<svg width="40" height="40" viewBox="0 0 40 40" fill="none" xmlns="http://www.w3.org/2000/svg">
<g id="ADD">
<path id="Vector" d="M31.5705 16.72H37.6128C37.3272 12.8914 35.6596 9.45143 33.1125 6.89143C30.5654 4.33143 27.1274 2.66286 23.3124 2.37714V8.43429H23.3467H23.3581L23.4038 8.44571L23.4723 8.45714C23.5523 8.46857 23.6322 8.48 23.7007 8.49143C23.8949 8.52571 24.0891 8.56 24.2833 8.60571H24.2947L24.3975 8.62857H24.4089C24.5231 8.65143 24.6259 8.68571 24.7401 8.72H24.7516L24.7858 8.73143L24.8658 8.75429L24.8886 8.76571L24.98 8.78857L25.0714 8.82286H25.0828L25.1628 8.84571L25.197 8.85714H25.2085C25.3112 8.89143 25.4255 8.92571 25.5283 8.97143H25.5397L25.6311 9.00571C25.7339 9.05143 25.8481 9.09714 25.9509 9.14286L25.9966 9.16571L26.0651 9.2L26.1679 9.24571H26.1793L26.2707 9.29143H26.2821C26.4192 9.36 26.5448 9.42857 26.6819 9.49714L26.6933 9.50857L26.7162 9.52L26.7961 9.56571L26.8761 9.61143L26.8875 9.62286L26.956 9.66857L26.9789 9.68C27.0817 9.73714 27.173 9.79428 27.2644 9.86286L27.2758 9.87429C27.4586 10 27.6528 10.1257 27.8241 10.2514L27.8355 10.2629L27.9155 10.32L27.984 10.3771L28.0069 10.3886C28.0982 10.4571 28.1782 10.5257 28.2696 10.6057L28.281 10.6171L28.3495 10.6743C28.4866 10.8 28.6351 10.9257 28.7607 11.0629L28.7721 11.0743L28.8407 11.1429L28.9092 11.2114L28.9206 11.2229C29.0234 11.3371 29.1262 11.44 29.229 11.5543L29.2404 11.5657L29.309 11.6343L29.3661 11.7029L29.3775 11.7257L29.4232 11.7829L29.446 11.8171L29.4575 11.8286C29.5031 11.8857 29.5374 11.9314 29.5831 11.9886L29.5945 12L29.6059 12.0229L29.663 12.0914L29.7202 12.1714L29.7316 12.1829L29.7773 12.2514L29.7887 12.2743L29.8344 12.3314L29.8572 12.3657L29.9258 12.4571L29.9486 12.4914L29.9943 12.56L30.0057 12.5714L30.0628 12.6514L30.1199 12.7314L30.1314 12.7429L30.1885 12.8343L30.2227 12.8914L30.2456 12.9371L30.2684 12.9829L30.3027 13.04L30.3141 13.0629L30.3598 13.1314L30.3712 13.1429L30.4169 13.2229L30.4626 13.3029L30.474 13.3257L30.5083 13.3943L30.5311 13.4286L30.554 13.4857L30.5768 13.5314L30.5997 13.5657L30.6339 13.6343L30.6453 13.6571L30.6796 13.7371L30.7253 13.8286V13.84L30.7596 13.92L30.771 13.9429L30.7824 13.9657L30.8167 14.0457L30.8509 14.1257L30.8624 14.1486L30.8738 14.1829L30.9081 14.2514L30.9195 14.2743L30.9537 14.3657L30.988 14.4571V14.4686L31.0337 14.5829L31.0565 14.64L31.068 14.6857L31.1022 14.7886V14.8L31.1137 14.8343L31.1365 14.9143V14.9257L31.1708 15.0171L31.1822 15.04L31.205 15.1314L31.2279 15.2114L31.2393 15.2457L31.2507 15.3029L31.2621 15.36L31.2736 15.4057L31.2964 15.4743L31.3078 15.4971L31.3307 15.5886V15.6L31.3535 15.7029V15.7143L31.3764 15.8057L31.3878 15.8286L31.3992 15.8971L31.4106 15.9429V15.9657C31.422 16.0343 31.4335 16.1029 31.4449 16.1714V16.1829V16.2057L31.4563 16.2971L31.4677 16.4V16.4114L31.4792 16.5029V16.5371L31.4906 16.6057L31.5705 16.72ZM20.7995 19.0514C20.5825 18.8343 20.2627 18.6971 19.92 18.6971C19.6002 18.6971 19.3033 18.8343 19.0862 19.0629C18.8692 19.28 18.7322 19.6 18.7322 19.9429C18.7322 20.2971 18.8692 20.6057 19.0862 20.8229C19.3033 21.0514 19.6002 21.1886 19.92 21.1886C20.2627 21.1886 20.5711 21.0514 20.7995 20.8343C21.0166 20.6171 21.1536 20.2971 21.1536 19.9543C21.1536 19.6343 21.0394 19.3371 20.8452 19.12C20.8338 19.0743 20.811 19.0629 20.7995 19.0514ZM10.04 12.4457C10.0742 12.3886 10.1085 12.3429 10.1542 12.2857L10.1656 12.2629L10.1885 12.24L10.2342 12.1714L10.2456 12.16L10.3027 12.08L10.3712 11.9886L10.4169 11.9314L10.4397 11.8971C10.5083 11.8057 10.5882 11.7257 10.6568 11.6343L10.7253 11.5657L10.7367 11.5543C10.8624 11.4171 10.9994 11.2686 11.1251 11.1429L11.205 11.0629L11.2621 11.0057L11.285 10.9829C11.3649 10.9029 11.4563 10.8229 11.5363 10.7543L11.5477 10.7429C11.6048 10.6971 11.6619 10.6514 11.7076 10.6057L11.7647 10.56L11.799 10.5371C11.8561 10.4914 11.9132 10.4457 11.9817 10.3886L12.0046 10.3771L12.0731 10.32L12.1645 10.2514L12.233 10.1943L12.2559 10.1829L12.3472 10.1143L12.3929 10.08L12.4386 10.0457L12.4729 10.0229L12.5414 9.97714L12.6328 9.90857L12.7127 9.85143L12.7242 9.84C12.8155 9.78286 12.9183 9.71429 13.0211 9.65714L13.044 9.64571L13.1125 9.6L13.1239 9.58857L13.2039 9.54286L13.2838 9.49714L13.3067 9.48571L13.3752 9.45143L13.4095 9.42857L13.5009 9.38286L13.5123 9.37143L13.5808 9.33714L13.6037 9.32571L13.6265 9.31429L13.7065 9.28H13.7179L13.8093 9.23429H13.8207L13.9006 9.2L13.9235 9.18857L13.992 9.15429L14.0377 9.13143L14.0834 9.10857L14.1405 9.08571L14.2433 9.04L14.2661 9.02857L14.3575 8.99429L14.4489 8.96H14.4603L14.5403 8.92571L14.5745 8.91429H14.5859C14.6431 8.89143 14.7116 8.86857 14.7687 8.84571L14.8258 8.82286L14.9058 8.8H14.9172L15.0086 8.76571L15.0999 8.74286L15.1228 8.73143L15.2027 8.70857L15.237 8.69714L15.2941 8.68571L15.3512 8.67429L15.3969 8.66286L15.4654 8.64L15.5797 8.61714H15.5911L15.6939 8.59429H15.7053L15.7967 8.57143H15.8195L15.8881 8.56L15.9338 8.54857L15.9909 8.53714L16.048 8.52571L16.0822 8.51429L16.1622 8.50286H16.185L16.2764 8.49143L16.3792 8.48H16.3906L16.482 8.46857H16.5163L16.5848 8.45714L16.6305 8.44571L16.6876 8.43429V2.37714C12.8498 2.66286 9.40034 4.33143 6.8418 6.89143C4.28327 9.45143 2.61565 12.8914 2.3301 16.7314H8.37236L8.38378 16.64V16.6286L8.3952 16.56V16.5257L8.40662 16.4457V16.4343L8.41805 16.3314L8.44089 16.2286V16.2057L8.45231 16.1257L8.46373 16.0914L8.47516 16.0343L8.48658 15.9771L8.50942 15.8743L8.52084 15.8514L8.54369 15.76V15.7486L8.56653 15.6457V15.6343L8.58938 15.5429L8.6008 15.52L8.62364 15.4514V15.44L8.64649 15.36V15.3486L8.66933 15.2571L8.69217 15.1771L8.7036 15.1543L8.72644 15.0629L8.76071 14.9714V14.96L8.77213 14.9371L8.8064 14.8457L8.82924 14.7771L8.84066 14.7314L8.85208 14.6857L8.87493 14.6286L8.88635 14.5943L8.92062 14.5143L8.93204 14.5029L8.9663 14.4114L9.00057 14.32L9.01199 14.3086L9.04626 14.24L9.05768 14.2057L9.08053 14.1486V14.1371L9.11479 14.0571L9.14906 13.9886L9.16048 13.9657L9.19475 13.8857V13.8743L9.24043 13.7829V13.7714L9.28612 13.6914L9.29754 13.6686L9.33181 13.6L9.35465 13.5657L9.41176 13.4629L9.43461 13.4286L9.44603 13.4057L9.4803 13.3371L9.52598 13.2571L9.57167 13.1771L9.58309 13.1657L9.62878 13.0971L9.6402 13.0743L9.67447 13.0171L9.69731 12.9829V12.9714C9.75443 12.88 9.81154 12.7771 9.88007 12.6857L9.93718 12.6057L9.9486 12.5943L9.99429 12.5257L10.04 12.4457ZM13.9577 11.84L13.912 11.8743L13.9006 11.8857L13.8435 11.92C13.7864 11.9543 13.7293 12 13.6722 12.0343L13.6265 12.0686L13.6151 12.08C13.5351 12.1371 13.4666 12.1943 13.3981 12.2514L13.3524 12.2857L13.3409 12.2971C13.2724 12.3543 13.1925 12.4114 13.1239 12.48L13.0897 12.5143L13.0782 12.5257L13.0211 12.5714L12.9754 12.6171L12.964 12.6286L12.9298 12.6629L12.827 12.7543L12.7813 12.8L12.7356 12.8457L12.7242 12.8571L12.6899 12.8914L12.6442 12.9371L12.6099 12.9714L12.5985 12.9829L12.5871 12.9943L12.5071 13.0857L12.4957 13.0971L12.4614 13.1314L12.4386 13.1543L12.4158 13.1771L12.3815 13.2114L12.3701 13.2229L12.3244 13.28L12.2787 13.3371L12.2673 13.3486L12.233 13.3943L12.1873 13.4514L12.1531 13.4857L12.1416 13.4971L12.0959 13.5543L12.0503 13.6114L12.0388 13.6229L12.0046 13.6686L11.9817 13.6914L11.9589 13.7257L11.9246 13.7714L11.9132 13.7829L11.8789 13.84L11.8447 13.8971L11.8104 13.9429L11.799 13.9543L11.7761 13.9771L11.7533 14.0114L11.7304 14.0571L11.719 14.0686L11.6848 14.1257L11.6505 14.1829L11.6391 14.1943L11.6162 14.24V14.2971L11.5934 14.3314L11.5705 14.3771L11.5591 14.4L11.5248 14.4571L11.4906 14.5143L11.4792 14.5257L11.4563 14.5714L11.4449 14.5943L11.4335 14.6286L11.4106 14.6743L11.3992 14.6971L11.3649 14.7543L11.3307 14.8229L11.3078 14.88V14.8914L11.2964 14.9257L11.285 14.96L11.2621 15.0057L11.2507 15.0286L11.2279 15.0857L11.205 15.1543V15.1657L11.1822 15.2229L11.1708 15.2571L11.1593 15.2914L11.1365 15.3371L11.1251 15.36L11.1022 15.4171L11.0794 15.4857V15.4971L11.0565 15.5543L11.0337 15.6229L11.0223 15.6686L11.0108 15.6914L10.988 15.76L10.9652 15.8286V15.84L10.9537 15.8971L10.9423 15.9314L10.9309 15.9657L10.9195 16.0114V16.0343L10.9081 16.1029L10.8852 16.1714V16.1829L10.8738 16.24L10.8624 16.2743L10.8509 16.3086L10.8395 16.3543V16.3771L10.8281 16.4457L10.8167 16.5143L10.7938 16.6514L10.7824 16.6971V16.72H16.7447V10.7771C15.7167 10.9371 14.7801 11.3029 13.9577 11.84ZM23.301 16.72H29.2176V16.6971L29.2062 16.6514L29.1947 16.6057V16.5714L29.1833 16.5143V16.5029L29.1719 16.4343V16.4229L29.1605 16.3543V16.3314L29.1491 16.2857L29.1376 16.2171L29.1262 16.16V16.1486L29.1034 16.08C29.0919 16.0229 29.0691 15.9657 29.0577 15.9086L29.0463 15.8743L29.0348 15.8171V15.8057L29.012 15.7371L28.9777 15.6686L28.9663 15.6457L28.9549 15.6L28.9435 15.5657L28.932 15.5314L28.9092 15.4743V15.4629L28.8863 15.3943L28.8635 15.3371L28.8521 15.3143L28.8292 15.2686L28.8178 15.2343L28.8064 15.2L28.7836 15.1429V15.1314L28.7607 15.0629L28.7264 14.9829L28.7036 14.9371L28.6922 14.9029L28.6579 14.8229V14.8114L28.6236 14.7429L28.5894 14.6857L28.578 14.6629L28.5437 14.5829L28.5323 14.56L28.5094 14.5143L28.498 14.5029L28.4637 14.4457L28.4295 14.3886L28.418 14.3657L28.3952 14.32L28.3724 14.2857L28.3609 14.2629L28.3381 14.2171L28.3267 14.2057L28.2924 14.1486L28.2581 14.0914L28.2467 14.08L28.2239 14.0343L28.201 14L28.1782 13.9771L28.1439 13.9314L28.1325 13.92L28.0982 13.8629L28.064 13.8057L28.0525 13.7943L28.0297 13.7486L28.0069 13.7143L27.984 13.6914L27.9497 13.6457L27.9383 13.6343L27.8926 13.5771L27.8469 13.52L27.8355 13.5086L27.8013 13.4743L27.7556 13.4171L27.7213 13.3714L27.7099 13.36L27.6642 13.3029L27.6185 13.2457L27.6071 13.2343L27.5728 13.2L27.5271 13.1543L27.4929 13.12L27.4814 13.1086L27.4357 13.0629L27.3901 13.0171L27.3786 13.0057L27.3444 12.9714L27.3215 12.9486L27.2987 12.9257L27.2644 12.8914L27.253 12.88L27.2073 12.8343L27.1616 12.7886L27.1502 12.7771L27.1159 12.7429L27.0931 12.72L27.0702 12.6971L27.0246 12.6514L26.9789 12.6057L26.9332 12.56L26.9218 12.5486L26.8875 12.5143L26.8304 12.4686L26.7961 12.4343L26.7847 12.4229C26.6819 12.3314 26.5791 12.2514 26.4649 12.1714L26.4078 12.1257L26.3963 12.1143L26.3507 12.08L26.2364 12L26.1793 11.9657L26.1222 11.9314L26.008 11.8514L25.9623 11.8286L25.9509 11.8171L25.8938 11.7829L25.8367 11.7486C25.7339 11.6914 25.6425 11.6343 25.5397 11.5771L25.5283 11.5657L25.4826 11.5429L25.4597 11.5314L25.4255 11.5086H25.414C25.3569 11.4743 25.2998 11.4514 25.2313 11.4171L25.2199 11.4057L25.1742 11.3829L25.1399 11.3714L25.1057 11.36C25.0371 11.3371 24.98 11.3029 24.9115 11.28H24.9001L24.8429 11.2571L24.8087 11.2457L24.7744 11.2343L24.7059 11.2114L24.6488 11.1886C24.3175 11.0629 23.9749 10.9714 23.6208 10.9029L23.5523 10.8914C23.4837 10.88 23.4152 10.8686 23.3352 10.8571V16.72H23.301ZM29.1833 23.2686H23.221V29.2114H23.2439L23.2895 29.2L23.3352 29.1886H23.3581L23.4152 29.1771H23.4266L23.4951 29.1657H23.5066L23.5637 29.1543H23.5865L23.6322 29.1429L23.6779 29.1314L23.7007 29.12L23.7579 29.1086H23.7693L23.8378 29.0857H23.8492L23.9063 29.0743L23.9292 29.0629L23.9749 29.0514L24.0206 29.04L24.0434 29.0286L24.1005 29.0171H24.1119L24.1805 28.9943H24.1919L24.249 28.9714L24.2718 28.96L24.3175 28.9486L24.3518 28.9371L24.3746 28.9257L24.4318 28.9029L24.5117 28.88L24.5688 28.8571L24.5917 28.8457L24.6373 28.8343L24.6716 28.8229L24.6945 28.8114L24.7516 28.7886L24.8315 28.7543L24.8886 28.7314L24.9115 28.72L24.9572 28.6971L24.9914 28.6857L25.0143 28.6743L25.0714 28.6514H25.0828L25.1513 28.6171L25.2085 28.5943L25.2313 28.5829L25.277 28.56L25.3112 28.5371L25.3912 28.4914L25.4026 28.48L25.4597 28.4457C25.5625 28.3886 25.6539 28.3314 25.7567 28.2743L25.8138 28.24L25.8367 28.2286L25.8824 28.2057L25.9166 28.1829L25.9395 28.16L25.9851 28.1257L25.9966 28.1143L26.0537 28.08L26.1108 28.0457L26.1222 28.0343L26.1907 27.9886L26.2136 27.9657L26.2593 27.9314L26.2707 27.92L26.3278 27.8743L26.3849 27.8286L26.3963 27.8171L26.4306 27.7829L26.4649 27.76L26.4877 27.7371L26.5334 27.7029L26.5448 27.6914L26.6019 27.6457L26.659 27.6L26.6705 27.5886L26.7047 27.5543L26.7276 27.5314L26.7504 27.5086L26.7847 27.4743L26.7961 27.4629L26.8532 27.4171L26.8989 27.3714L26.9103 27.36L26.9446 27.3257L26.9674 27.3029L26.9903 27.28L27.0246 27.2457L27.036 27.2343L27.0817 27.1886L27.1274 27.1429L27.1388 27.1314L27.173 27.0971L27.1959 27.0743L27.2187 27.0514L27.253 27.0171L27.2644 27.0057L27.3101 26.96L27.3558 26.9143L27.3672 26.9029L27.4015 26.8686L27.4243 26.8457L27.4472 26.8229L27.4814 26.7886L27.4929 26.7771L27.5385 26.72L27.5842 26.6629L27.5957 26.6514L27.6299 26.6057L27.6528 26.5829L27.6756 26.56L27.7099 26.5143L27.7213 26.5029L27.767 26.4457L27.8127 26.3886L27.8241 26.3771L27.8584 26.3314L27.8812 26.3086L27.9041 26.2857L27.9383 26.24L27.9497 26.2286L27.984 26.1714L28.0183 26.1143L28.0297 26.1029L28.0525 26.0571L28.0754 26.0229L28.0982 25.9886L28.1211 25.9429L28.1325 25.9314L28.1668 25.8743L28.201 25.8171L28.2124 25.8057L28.2353 25.76L28.2696 25.7029L28.2924 25.6571L28.3038 25.6457L28.3381 25.5886L28.3724 25.5314L28.3838 25.52L28.4066 25.4743L28.418 25.44L28.4295 25.4057L28.4523 25.36L28.4637 25.3486L28.498 25.2914L28.5323 25.2343L28.5437 25.2229L28.5665 25.1771L28.6008 25.1086L28.6236 25.0629L28.6351 25.0514L28.6922 24.9257V24.9143L28.7036 24.8914L28.7264 24.8457L28.7379 24.8114L28.7493 24.7771L28.7721 24.7314V24.72L28.8178 24.5829L28.8292 24.56L28.8407 24.5143V24.5029L28.8863 24.3771L28.9092 24.3086L28.932 24.24L28.9663 24.1029L28.9777 24.0457V24.0343L29.0006 23.9657L29.0234 23.8971V23.8743L29.0348 23.8286L29.0463 23.7943L29.0577 23.76L29.0691 23.7029V23.6914L29.0805 23.6229L29.0919 23.5543L29.1148 23.4171L29.1262 23.36L29.1833 23.2686ZM31.5248 23.2686C31.5134 23.3371 31.5134 23.4057 31.502 23.4629L31.4906 23.5543V23.5771V23.5886L31.4563 23.7829V23.7943L31.4449 23.8857C31.4335 23.9543 31.422 24.0229 31.4106 24.08C31.3878 24.1829 31.3649 24.2743 31.3421 24.3771L31.3192 24.4686V24.4914L31.2964 24.5714L31.285 24.6057L31.2736 24.6629V24.6743L31.2164 24.8571L31.1936 24.9486V24.96L31.1593 25.0514V25.0629L31.1251 25.1543C31.0908 25.2457 31.0565 25.3371 31.0223 25.4286L30.9994 25.4971L30.988 25.52L30.9537 25.6114L30.9195 25.7029V25.7143L30.8852 25.7943L30.8738 25.8286L30.8509 25.8857L30.8281 25.9314V25.9429L30.7938 26.0229L30.7824 26.0457L30.771 26.0686L30.7367 26.1486L30.7253 26.16L30.6796 26.2514L30.6339 26.3314L30.6225 26.3543L30.5882 26.4229L30.5654 26.4571V26.4686L30.5197 26.56L30.4969 26.5943L30.4626 26.6629L30.4512 26.6857L30.4055 26.7657V26.7771L30.3598 26.8571V26.8686L30.3141 26.9486L30.3027 26.9714L30.2684 27.0286L30.2456 27.0629L30.2227 27.1086L30.1885 27.1657L30.1656 27.2L30.1199 27.2686L30.1085 27.28L30.0514 27.36L29.9943 27.44L29.9829 27.4514L29.9372 27.52L29.9143 27.5429L29.8801 27.6L29.8458 27.6457L29.823 27.68L29.7887 27.7371L29.7658 27.76L29.7202 27.8286L29.7087 27.84L29.6516 27.92L29.5945 27.9886L29.5831 28.0114L29.5146 28.1029C29.4689 28.16 29.4232 28.2057 29.3889 28.2629L29.3775 28.2857L29.3661 28.3086L29.309 28.3771L29.2404 28.4457L29.229 28.4571L29.1719 28.5257L29.1491 28.5486L29.1034 28.5943L29.0691 28.6286L29.0348 28.6629L28.9891 28.7086L28.9663 28.7314L28.9092 28.7886L28.8978 28.8L28.8292 28.8686L28.7607 28.9371L28.7493 28.9486L28.6922 29.0057L28.6693 29.0286L28.6236 29.0743L28.5894 29.1086L28.5551 29.1429L28.5094 29.1886L28.4866 29.2114L28.418 29.2686L28.4066 29.28L28.3381 29.3486L28.2696 29.4057L28.2467 29.4171L28.2353 29.4286L28.1668 29.4857L28.1553 29.4971L28.1096 29.5314L28.064 29.5657L28.0297 29.5886L27.9726 29.6343L27.9497 29.6457L27.8812 29.7029L27.8013 29.76L27.7898 29.7714L27.7213 29.8171L27.6985 29.8286L27.6413 29.8743L27.6071 29.8971L27.5614 29.9314L27.5157 29.9657L27.4814 29.9886L27.4129 30.0343L27.4015 30.0457L27.3215 30.1029L27.2416 30.16L27.1616 30.2057L27.1274 30.2286L27.0702 30.2629C27.0131 30.2971 26.956 30.3314 26.8989 30.3657L26.8304 30.4114L26.819 30.4229C26.6248 30.5371 26.4192 30.64 26.2136 30.7429L26.1222 30.7886H26.1108L26.0308 30.8229C25.1628 31.2229 24.2262 31.4857 23.2553 31.6114V37.6686C27.0931 37.3829 30.5425 35.7143 33.1011 33.1543C35.6596 30.5943 37.3272 27.1543 37.6128 23.3143H31.5248V23.2686ZM9.50314 19.0514H1.16505C0.525414 19.0514 0 18.5257 0 17.8857C0 12.9486 1.99886 8.48 5.24272 5.23429C8.48658 2 12.9526 0 17.8869 0C18.5266 0 19.052 0.525714 19.052 1.16571V9.50857V9.52V16.3771C19.3375 16.3086 19.6231 16.2629 19.9315 16.2629C20.297 16.2629 20.6511 16.32 20.9937 16.4229V9.52V1.16571C20.9937 0.525714 21.5191 0 22.1588 0C27.0817 0 31.5363 2 34.7687 5.24571C38.0011 8.48 40 12.96 40 17.8857C40 18.5257 39.4746 19.0514 38.8349 19.0514H30.4969H23.4951C23.5637 19.3371 23.5979 19.6229 23.5979 19.9314C23.5979 20.2857 23.5523 20.6286 23.4609 20.9486H30.4512H38.7893C39.4289 20.9486 39.9543 21.4743 39.9543 22.1143C39.9543 27.0514 37.9555 31.52 34.7116 34.7657C31.4792 38 27.0131 40 22.0788 40C21.4392 40 20.9138 39.4743 20.9138 38.8343V30.4686V23.4629C20.6054 23.5429 20.2855 23.5886 19.9429 23.5886C19.5545 23.5886 19.189 23.5314 18.8349 23.4171V29.5657C18.8349 30.2057 18.3095 30.7314 17.6699 30.7314C15.2941 30.7314 13.1354 29.76 11.5705 28.2057C10.0057 26.64 9.02341 24.48 9.02341 22.1143C9.02341 21.4743 9.54883 20.9486 10.1885 20.9486H16.4592C16.3678 20.6286 16.3221 20.2857 16.3221 19.9314C16.3221 19.6229 16.3564 19.3371 16.4249 19.0514H9.50314ZM16.4934 23.2686H11.4449C11.6848 24.5371 12.313 25.6686 13.1925 26.5486C14.072 27.4286 15.2142 28.0457 16.4934 28.2857V23.2686Z" fill="black"/>
</g>
</svg>
