<svg width="112" height="24" viewBox="0 0 112 24" fill="none" xmlns="http://www.w3.org/2000/svg">
<g id="&#208;&#161;&#208;&#187;&#208;&#190;&#208;&#185; 2">
<g id="&#208;&#161;&#208;&#187;&#208;&#190;&#208;&#185; 1">
<path id="Vector" d="M3.68619 18.7051V22.7283H3.1423V19.1872H1.04389V22.7283H0.5V18.7051H3.68619Z" fill="#555555"/>
<path id="Vector_2" d="M5.75092 22.7283H5.20703V18.7051H7.02C7.76254 18.7051 8.21192 19.1872 8.21192 19.8353C8.21192 20.3946 7.88983 21.033 7.02 21.033H5.75092V22.7283ZM5.75092 20.5663H6.83098C7.31894 20.5663 7.6526 20.3734 7.6526 19.8411C7.6526 19.3358 7.30351 19.1699 6.85413 19.1699H5.75092V20.5663Z" fill="#555555"/>
<path id="Vector_3" d="M12.4174 22.7283H9.44727V18.7051H12.3789V19.1872H9.99115V20.3657H12.1899V20.8478H9.99115V22.2442H12.4174V22.7283Z" fill="#555555"/>
<path id="Vector_4" d="M16.7793 18.7051V22.2461H17.1342V23.5962H16.6366V22.7264H13.8863V23.5962H13.3887V22.2461H13.7262C14.1119 21.4477 14.1486 20.9154 14.1486 19.9799V18.7051H16.7793ZM16.2373 19.1872H14.6944V20.0841C14.6944 20.9771 14.6288 21.5537 14.2797 22.2461H16.2373V19.1872Z" fill="#555555"/>
<path id="Vector_5" d="M18.3729 18.7051H20.1396C20.8937 18.7051 21.2756 19.1699 21.2756 19.7196C21.2809 19.8976 21.2327 20.0731 21.1371 20.2234C21.0415 20.3737 20.903 20.4918 20.7394 20.5624C21.0056 20.6666 21.4704 20.8498 21.4704 21.5267C21.4704 22.1748 20.994 22.7187 20.1011 22.7187H18.3652L18.3729 18.7051ZM18.9149 20.4062H19.8966C20.4174 20.4062 20.7337 20.25 20.7337 19.7581C20.7337 19.3859 20.5061 19.1795 19.9024 19.1795H18.9149V20.4062ZM18.9149 22.2616H20.0721C20.6372 22.2616 20.9246 21.9742 20.9246 21.5248C20.9246 20.9597 20.427 20.8498 19.9834 20.8498H18.9149V22.2616Z" fill="#555555"/>
<path id="Vector_6" d="M24.3307 22.832C22.8302 22.832 22.375 21.586 22.375 20.7104C22.375 19.8348 22.8302 18.5889 24.3307 18.5889C25.8312 18.5889 26.2883 19.8367 26.2883 20.7104C26.2883 21.5841 25.8331 22.832 24.3307 22.832ZM24.3307 19.0807C23.457 19.0807 22.9343 19.7577 22.9343 20.7046C22.9343 21.6516 23.457 22.3498 24.3307 22.3498C25.2044 22.3498 25.7271 21.6632 25.7271 20.7162C25.7271 19.7692 25.2063 19.0807 24.3307 19.0807Z" fill="#555555"/>
<path id="Vector_7" d="M30.1905 19.9179C30.042 19.2081 29.4538 19.0808 29.0661 19.0808C28.3409 19.0808 27.7527 19.6189 27.7527 20.6778C27.7527 21.6247 28.0863 22.3499 29.0835 22.3499C29.4384 22.3499 30.0478 22.1841 30.2291 21.2486H30.7556C30.5338 22.7665 29.3053 22.8321 29.0005 22.8321C28.0863 22.8321 27.1934 22.24 27.1934 20.6932C27.1934 19.4569 27.8973 18.5986 29.0661 18.5986C30.1018 18.5986 30.6399 19.2409 30.7171 19.9179H30.1905Z" fill="#555555"/>
<path id="Vector_8" d="M35.0237 22.7283H34.3487L33.2686 21.0754L32.1538 22.7283H31.5L32.9349 20.6666L31.5849 18.7051H32.2676L33.286 20.248L34.3062 18.7051H34.9543L33.6042 20.6666L35.0237 22.7283Z" fill="#555555"/>
<path id="Vector_9" d="M36.7763 21.9954H36.7995L38.8381 18.7051H39.4591V22.7283H38.9152V19.4804H38.9056L36.8612 22.7283H36.2344V18.7051H36.7763V21.9954Z" fill="#555555"/>
<path id="Vector_10" d="M41.5244 22.2461H43.0037V18.7051H43.5475V22.2461H45.0269V18.7051H45.5688V22.2461H45.9237V23.5962H45.4396V22.7264H40.9805V18.7051H41.5244V22.2461Z" fill="#555555"/>
<path id="Vector_11" d="M47.8587 21.5537L47.4382 22.7283H46.8789L48.391 18.7051H49.0062L50.4528 22.7283H49.8742L49.4749 21.5537H47.8587ZM49.2724 21.0754L48.6784 19.303H48.6687L48.0245 21.0754H49.2724Z" fill="#555555"/>
<path id="Vector_12" d="M54.5825 22.7283H54.0406V21.0041H53.1418L52.0675 22.7283H51.3848L52.5266 21.0041C52.1177 20.9269 51.4696 20.6781 51.4696 19.8083C51.4696 18.9384 52.1292 18.7051 52.7927 18.7051H54.5825V22.7283ZM54.0406 19.1699H52.7541C52.4822 19.1699 52.029 19.22 52.029 19.8411C52.029 20.4062 52.4995 20.5393 52.8988 20.5393H54.0406V19.1699Z" fill="#555555"/>
<path id="Vector_13" d="M61.0422 18.7051V19.1872H58.747V20.3657H60.0547C60.9303 20.3657 61.262 21.0369 61.262 21.5962C61.262 22.2442 60.7972 22.7264 60.072 22.7264H58.2051V18.7051H61.0422ZM58.747 22.2461H59.9042C60.3536 22.2461 60.6969 22.0957 60.6969 21.5923C60.6969 21.0484 60.3536 20.8498 59.8657 20.8498H58.747V22.2461Z" fill="#555555"/>
<path id="Vector_14" d="M65.6893 18.7051L64.183 22.0899C63.911 22.7051 63.6391 22.8382 63.3131 22.8382C63.1834 22.836 63.0542 22.8212 62.9274 22.7939V22.3445C63.0312 22.3622 63.1365 22.37 63.2418 22.3676C63.4481 22.3676 63.5041 22.3059 63.6854 21.9819L62.1289 18.7031H62.7075L63.9438 21.4515L65.1107 18.7051H65.6893Z" fill="#555555"/>
<path id="Vector_15" d="M69.4706 18.7051V22.2461H69.8255V23.5962H69.3279V22.7264H66.5795V23.5962H66.0742V22.2461H66.4117C66.7975 21.4477 66.8341 20.9154 66.8341 19.9799V18.7051H69.4706ZM68.9287 19.1872H67.3857V20.0841C67.3857 20.9771 67.3201 21.5537 66.9711 22.2461H68.9287V19.1872Z" fill="#555555"/>
<path id="Vector_16" d="M73.9822 18.7051L72.4759 22.0899C72.204 22.7051 71.932 22.8382 71.6061 22.8382C71.4764 22.836 71.3472 22.8212 71.2203 22.7939V22.3445C71.3242 22.3623 71.4294 22.3701 71.5347 22.3676C71.7411 22.3676 71.7951 22.3059 71.9783 21.9819L70.4219 18.7031H71.0005L72.2348 21.4515L73.4036 18.7051H73.9822Z" fill="#555555"/>
<path id="Vector_17" d="M75.4443 22.2461H76.9236V18.7051H77.4655V22.2461H78.9448V18.7051H79.4887V22.2461H79.8436V23.5962H79.3499V22.7264H74.9004V18.7051H75.4443V22.2461Z" fill="#555555"/>
<path id="Vector_18" d="M83.7417 22.7283H80.7715V18.7051H83.7031V19.1872H81.3115V20.3657H83.5121V20.8478H81.3115V22.2442H83.7417V22.7283Z" fill="#555555"/>
<path id="Vector_19" d="M88.1049 22.7283H85.1348V18.7051H88.0625V19.1872H85.6787V20.3657H87.8696V20.8478H85.6709V22.2442H88.0972L88.1049 22.7283Z" fill="#555555"/>
<path id="Vector_20" d="M9.96091 4.37666C9.48453 2.28596 8.19424 1.48363 6.10354 1.48363C3.14494 1.48363 1.86043 4.01792 1.86043 6.9071C1.86043 9.64583 2.86335 12.3981 6.19612 12.3981C8.30224 12.3981 9.61375 10.9708 10.0728 9.03444H11.2763C10.7343 11.3971 9.25501 13.3856 5.97239 13.3856C2.20567 13.3875 0.710938 10.4115 0.710938 6.94374C0.710938 2.26861 3.15844 0.5 6.40635 0.5C8.92521 0.5 10.7594 1.85008 11.1509 4.37666H9.96091Z" fill="#555555"/>
<path id="Vector_21" d="M14.8425 5.90039H14.8753C15.4385 4.48859 16.2717 4.01221 17.7491 4.01221V5.12892C15.4539 5.12892 14.8425 6.77794 14.8425 8.74906V13.0693H13.8223V4.25908H14.8425V5.90039Z" fill="#555555"/>
<path id="Vector_22" d="M27.6095 8.66044C27.6095 11.4493 25.9932 13.3028 23.5284 13.3028C21.2853 13.3028 19.4473 11.7386 19.4473 8.66044C19.4473 6.09336 20.8089 4.02002 23.5284 4.02002C26.2825 4.02002 27.6095 6.076 27.6095 8.66044ZM20.537 8.66044C20.537 10.8553 21.5727 12.3847 23.5284 12.3847C25.6731 12.3847 26.5236 10.5506 26.5236 8.66044C26.5236 6.5871 25.6885 4.93807 23.5284 4.93807C21.3682 4.93807 20.537 6.75683 20.537 8.66044Z" fill="#555555"/>
<path id="Vector_23" d="M36.3296 7.02862C35.9747 5.71905 35.074 4.936 33.7143 4.936C31.6216 4.936 30.7556 6.83768 30.7556 8.67379C30.7556 10.5099 31.6043 12.3807 33.7143 12.3807C35.2263 12.3807 36.1772 11.48 36.4144 10.0162H37.5003C37.1454 11.9718 35.9187 13.2949 33.7104 13.2949C30.9042 13.2949 29.6602 11.2717 29.6602 8.66608C29.6602 6.21858 31.072 4.0083 33.7104 4.0083C35.7355 4.0083 37.0605 4.97264 37.3653 7.01705L36.3296 7.02862Z" fill="#555555"/>
<path id="Vector_24" d="M40.991 4.25928V10.0453C40.991 11.5574 41.6544 12.3925 43.2514 12.3925C44.9351 12.3925 45.9381 10.9981 45.9381 9.05978V4.25928H46.9583V13.0657H45.9381V11.8409H45.9207C45.2572 12.6568 44.424 13.3029 43.0971 13.3029C40.7499 13.3029 39.9707 11.8911 39.9707 10.055V4.26892L40.991 4.25928Z" fill="#555555"/>
<path id="Vector_25" d="M56.1563 10.7329C56.1563 12.4186 54.6422 13.3019 52.567 13.3019C50.4917 13.3019 49.2959 11.975 49.2207 10.3086H50.2603C50.5824 11.8226 51.3615 12.3839 52.8949 12.3839C54.3722 12.3839 55.0704 11.6124 55.0704 10.7522C55.0704 8.20056 49.4232 10.0039 49.4232 6.5361C49.4232 5.07223 50.5631 4.02881 52.5207 4.02881C54.4243 4.02881 55.6644 4.80993 55.921 6.80033H54.8891C54.6962 5.43868 53.7859 4.94686 52.5091 4.94686C51.2323 4.94686 50.5206 5.56019 50.5206 6.45895C50.5206 8.85631 56.1659 7.36158 56.1659 10.7426" fill="#555555"/>
<path id="Vector_26" d="M73.0406 4.37666C72.6317 2.54055 71.0155 1.48363 69.1987 1.48363C65.9662 1.48363 64.6084 3.86556 64.6084 7.3314C64.6084 10.0316 66.2401 12.3981 69.0444 12.3981C71.409 12.3981 73.2605 10.8551 73.2605 7.72293H69.1312V6.7393H74.3695V13.0654H73.382V10.9728C72.5315 12.4366 71.2238 13.3875 68.8091 13.3875C65.7135 13.3875 63.4531 11.2293 63.4531 6.87623C63.4531 3.28888 65.2564 0.5 69.1138 0.5C71.6828 0.5 73.706 1.7575 74.2306 4.37666H73.0406Z" fill="#555555"/>
<path id="Vector_27" d="M78.4187 5.90039H78.4515C79.0147 4.48859 79.846 4.01221 81.3253 4.01221V5.12892C79.0224 5.12892 78.4187 6.77409 78.4187 8.7452V13.0655H77.4004V4.25908H78.4187V5.90039Z" fill="#555555"/>
<path id="Vector_28" d="M91.1798 8.66044C91.1798 11.4493 89.5655 13.3028 87.1006 13.3028C84.8556 13.3028 83.0195 11.7386 83.0195 8.66044C83.0195 6.09336 84.3812 4.02002 87.1006 4.02002C89.8529 4.02002 91.1798 6.076 91.1798 8.66044ZM84.1073 8.66044C84.1073 10.8553 85.1449 12.3847 87.1006 12.3847C89.2434 12.3847 90.094 10.5506 90.094 8.66044C90.094 6.5871 89.2588 4.93615 87.0987 4.93615C84.9386 4.93615 84.1054 6.7549 84.1054 8.65851" fill="#555555"/>
<path id="Vector_29" d="M94.6648 4.25928V10.0453C94.6648 11.5574 95.3283 12.3925 96.9272 12.3925C98.6109 12.3925 99.6119 10.9981 99.6119 9.05978V4.25928H100.632V13.0657H99.6119V11.8409H99.5965C98.9349 12.6568 98.1017 13.3029 96.7729 13.3029C94.4276 13.3029 93.6445 11.8911 93.6445 10.055V4.26892L94.6648 4.25928Z" fill="#555555"/>
<path id="Vector_30" d="M104.526 16.5333H103.506V4.25717H104.526V5.80012H104.561C105.155 4.64291 106.499 4.01416 107.618 4.01416C110.461 4.01416 111.601 6.03735 111.601 8.64301C111.601 11.1098 110.357 13.3027 107.672 13.3027C106.43 13.3027 105.165 12.7241 104.526 11.6518V16.5333ZM104.526 8.77994C104.526 10.6855 105.581 12.3847 107.502 12.3847C109.219 12.3847 110.511 10.8205 110.511 8.81466C110.511 6.6931 109.61 4.938 107.502 4.938C105.733 4.938 104.526 6.28808 104.526 8.77994Z" fill="#555555"/>
</g>
</g>
</svg>
