<svg width="160" height="50" viewBox="0 0 160 50" fill="none" xmlns="http://www.w3.org/2000/svg">
<g id="Name=Wood House">
<g id="Vector">
<path d="M23.2352 20.7649L12.845 26.7536L2.45913 20.7649V16.91L11.6154 22.1773L14.0746 20.7649L2.45913 14.0765V8.80921L12.845 2.83355L23.2352 8.80921V12.6641L14.0746 7.39244L11.6154 8.80921L23.2352 15.4976H25.6944V7.39244L12.845 0L0 7.39244V42.6032L9.15632 47.8748V45.0413L2.45913 41.1908V23.5984L11.6154 28.8614V34.7979H14.0746V28.8614L23.2352 23.5984V41.1908L14.0746 46.4581V39.3655L11.6154 39.3698V49.2873L12.845 50L25.6944 42.6032V17.9357H23.2352V20.7649Z" fill="#E5824D"/>
<path d="M50.4909 15.9152H52.6274V23.7944H55.0603V15.9152H57.1968V13.7466H50.4909V15.9152Z" fill="#6D6A78"/>
<path d="M74.846 21.7517C73.1542 21.7517 71.9726 20.5305 71.9726 18.7747C71.9726 17.019 73.1542 15.7891 74.846 15.7891C76.5377 15.7891 77.7193 17.0146 77.7193 18.7747C77.7193 20.5348 76.5334 21.7517 74.846 21.7517ZM74.846 13.5335C71.7459 13.5335 69.4873 15.7369 69.4873 18.7747C69.4873 21.8125 71.6674 23.9898 74.846 23.9898C78.0245 23.9898 80.209 21.8169 80.209 18.7747C80.209 15.7326 78.0027 13.5335 74.846 13.5335Z" fill="#6D6A78"/>
<path d="M85.5637 16.7757L83.6889 13.7466H80.8025L84.3036 19.2572V23.7944H86.7366V19.2616L90.325 13.7466H87.4342L85.5637 16.7757Z" fill="#6D6A78"/>
<path d="M97.9598 17.4102H94.524V13.7466H92.0954V23.7944H94.524V19.5745H97.9598V23.7944H100.388V13.7466H97.9598V17.4102Z" fill="#6D6A78"/>
<path d="M108.394 21.7517C106.702 21.7517 105.52 20.5305 105.52 18.7747C105.52 17.019 106.702 15.7891 108.394 15.7891C110.085 15.7891 111.263 17.0146 111.263 18.7747C111.263 20.5348 110.081 21.7517 108.394 21.7517ZM108.394 13.5335C105.237 13.5335 103.035 15.7065 103.035 18.7747C103.035 21.8429 105.237 23.9898 108.394 23.9898C111.55 23.9898 113.748 21.8169 113.748 18.7747C113.748 15.7326 111.568 13.5335 108.394 13.5335Z" fill="#6D6A78"/>
<path d="M122.119 19.991C122.144 20.4317 122.006 20.866 121.731 21.2122C121.571 21.3927 121.372 21.5354 121.15 21.63C120.927 21.7247 120.687 21.7691 120.445 21.7598C120.199 21.77 119.954 21.7254 119.728 21.6291C119.502 21.5329 119.3 21.3875 119.137 21.2036C118.871 20.8572 118.741 20.4261 118.771 19.991V13.7459H116.338V19.8302C116.276 20.7915 116.549 21.7446 117.109 22.5291C117.53 22.9944 118.044 23.3665 118.617 23.6212C119.191 23.8759 119.812 24.0075 120.441 24.0075C121.069 24.0075 121.69 23.8759 122.264 23.6212C122.838 23.3665 123.351 22.9944 123.772 22.5291C124.339 21.7439 124.615 20.7869 124.552 19.8215V13.7372H122.119V19.991Z" fill="#6D6A78"/>
<path d="M143 15.9152V13.7466H137.157V23.7944H143V21.6214H139.586V19.6179H142.86V17.4493H139.586V15.9152H143Z" fill="#6D6A78"/>
<path d="M62.7861 18.1055H62.5507V15.8283H62.8166C63.8151 15.8283 64.3209 16.2107 64.3209 16.9582C64.3209 17.9013 63.4881 18.1055 62.7861 18.1055ZM66.8062 16.8756C66.8206 16.4313 66.7348 15.9895 66.5552 15.5826C66.3756 15.1757 66.1068 14.8141 65.7684 14.5245C65.3673 14.1899 64.661 13.7466 63.1524 13.7466H60.1003V23.7944H62.5289V19.9917H62.5899C62.7861 19.9917 63.0739 19.9917 63.4096 19.9569L65.0359 23.79H67.9093L65.6638 19.2789C66.0355 19.0005 66.334 18.6364 66.5337 18.2179C66.7334 17.7993 66.8284 17.3388 66.8105 16.8756" fill="#6D6A78"/>
<path d="M47.8834 18.47C47.5346 18.1093 46.8065 17.7834 45.7033 17.4835L45.5813 17.4487C45.2101 17.373 44.8575 17.2254 44.5435 17.0141C44.4555 16.9395 44.3855 16.8461 44.3385 16.7408C44.2916 16.6356 44.269 16.5212 44.2723 16.4061C44.2757 16.2909 44.3049 16.178 44.3579 16.0757C44.4109 15.9733 44.4862 15.8841 44.5784 15.8147C44.812 15.6493 45.0945 15.5666 45.3807 15.58C45.712 15.5826 46.0395 15.6506 46.3443 15.7799C46.6916 15.9254 47.0127 16.1265 47.2948 16.3753L48.1668 14.4196C47.7377 14.1259 47.2656 13.9001 46.7672 13.7503C46.2576 13.6008 45.7288 13.5261 45.1976 13.5287C44.2807 13.4919 43.3862 13.8167 42.7079 14.4327C42.3905 14.7302 42.1406 15.092 41.9752 15.4938C41.8097 15.8956 41.7325 16.328 41.7487 16.7621C41.7297 17.0774 41.7735 17.3933 41.8775 17.6916C41.9815 17.99 42.1437 18.2648 42.3547 18.5005C42.9346 19.0233 43.6407 19.3872 44.404 19.5565C44.8925 19.6434 45.36 19.8218 45.7818 20.0824C45.886 20.1806 45.9673 20.3003 46.0201 20.4332C46.0728 20.5661 46.0956 20.7089 46.087 20.8516C46.0899 20.9937 46.0595 21.1344 45.9982 21.2627C45.9369 21.3909 45.8464 21.5032 45.7339 21.5904C45.4819 21.7971 45.1616 21.9025 44.8357 21.8859C44.4198 21.8808 44.013 21.7637 43.6584 21.547C43.2056 21.2703 42.8007 20.9225 42.4594 20.517L41.2298 22.5422C41.7047 23.0112 42.2638 23.3871 42.878 23.6504C43.4828 23.895 44.1307 24.0162 44.7833 24.0068C45.8023 24.055 46.8001 23.7058 47.5651 23.0333C48.0355 22.5568 48.3655 21.9607 48.5193 21.3101C48.673 20.6594 48.6446 19.9792 48.4372 19.3436C48.3226 19.018 48.1381 18.7214 47.8965 18.4744" fill="#6D6A78"/>
<path d="M133.796 18.47C133.443 18.1093 132.714 17.7834 131.616 17.4835L131.489 17.4487C131.118 17.373 130.765 17.2254 130.451 17.0141C130.363 16.9426 130.292 16.8517 130.244 16.7485C130.197 16.6452 130.174 16.5324 130.177 16.4187C130.175 16.3006 130.203 16.1839 130.257 16.0787C130.311 15.9735 130.39 15.8829 130.486 15.8147C130.721 15.6511 131.003 15.5686 131.289 15.58C131.62 15.5822 131.948 15.6501 132.252 15.7799C132.6 15.9262 132.923 16.1272 133.207 16.3753L134.079 14.4196C133.648 14.1266 133.175 13.9009 132.675 13.7503C132.166 13.6005 131.637 13.5258 131.105 13.5287C130.189 13.4919 129.294 13.8167 128.616 14.4327C128.298 14.7302 128.049 15.092 127.883 15.4938C127.718 15.8956 127.64 16.328 127.657 16.7621C127.638 17.0777 127.683 17.3937 127.787 17.6921C127.892 17.9905 128.055 18.2652 128.267 18.5005C128.845 19.0235 129.55 19.3875 130.312 19.5565C130.796 19.6438 131.259 19.8222 131.677 20.0824C131.781 20.1806 131.862 20.3003 131.915 20.4332C131.968 20.5661 131.991 20.7089 131.982 20.8516C131.985 20.9937 131.954 21.1344 131.893 21.2627C131.832 21.3909 131.741 21.5032 131.629 21.5904C131.377 21.7971 131.056 21.9025 130.731 21.8859C130.315 21.8815 129.908 21.7643 129.553 21.547C129.1 21.2703 128.696 20.9225 128.354 20.517L127.129 22.5422C127.602 23.011 128.16 23.3869 128.773 23.6504C129.378 23.8946 130.026 24.0157 130.678 24.0068C131.702 24.0584 132.705 23.709 133.473 23.0333C133.821 22.7085 134.094 22.313 134.275 21.8735C134.455 21.4341 134.539 20.961 134.52 20.4865C134.522 20.0981 134.461 19.7118 134.336 19.3436C134.219 19.0196 134.034 18.7236 133.796 18.4744" fill="#6D6A78"/>
<path d="M62.529 35.4759V32.9031H61.1251V33.3377C61.1518 34.0776 61.0024 34.8133 60.689 35.4846L62.529 35.4759ZM59.9478 35.4759H60.2835C60.6517 34.7535 60.8202 33.9465 60.7719 33.1378V32.5945H62.8953V35.4976H63.3313L63.279 36.5537H62.9694V35.8105H60.3533L60.2879 36.5319H59.9783L59.9478 35.4759Z" fill="#6D6A78"/>
<path d="M64.962 32.5725H67.3121V32.9027H65.3326V34.011H67.1028V34.3412H65.3326V35.4755H67.3339V35.8102H64.962V32.5725Z" fill="#6D6A78"/>
<path d="M70.2549 34.3329C70.7912 34.3329 71.1269 34.0461 71.1269 33.6115C71.1269 33.1769 70.7781 32.9031 70.2549 32.9031H69.4352V34.3329H70.2549ZM69.082 32.5945H70.2985C71.031 32.5945 71.515 32.9813 71.515 33.6289C71.515 34.2764 70.9307 34.6893 70.2374 34.6893H69.4526V35.8105H69.082V32.5945Z" fill="#6D6A78"/>
<path d="M73.2284 32.5725H75.5785V32.9027H73.5946V34.011H75.3736V34.3412H73.5946V35.4755H75.6003V35.8102H73.2284V32.5725Z" fill="#6D6A78"/>
<path d="M78.8051 35.4801C79.2978 35.4801 79.603 35.2628 79.603 34.8934C79.603 34.524 79.3065 34.3372 78.731 34.3372H77.7064V35.4801H78.8051ZM78.6743 34.0156C79.1103 34.0156 79.4199 33.8156 79.4199 33.4289C79.4199 33.1073 79.167 32.903 78.7048 32.903H77.7151V34.0156H78.6743ZM77.3663 32.5727H78.7485C78.9022 32.562 79.0565 32.5819 79.2024 32.6312C79.3484 32.6804 79.483 32.758 79.5987 32.8595C79.6665 32.9292 79.7199 33.0115 79.7558 33.1017C79.7917 33.1919 79.8094 33.2883 79.808 33.3854C79.8113 33.548 79.7635 33.7075 79.6712 33.8416C79.579 33.9756 79.4468 34.0775 79.2935 34.1329C79.4847 34.1633 79.6591 34.2595 79.7866 34.4048C79.914 34.5501 79.9864 34.7353 79.9911 34.9282C79.9911 35.4801 79.5158 35.7974 78.8095 35.7974H77.3663V32.5727Z" fill="#6D6A78"/>
<path d="M83.793 34.2634V32.9031H82.7945C82.2626 32.9031 81.9486 33.1639 81.9486 33.5767C81.9486 33.9896 82.3018 34.2634 82.7945 34.2634H83.793ZM82.4849 34.5111C82.2448 34.4883 82.022 34.3765 81.8605 34.1979C81.6991 34.0192 81.6107 33.7867 81.6129 33.5463C81.6081 33.4279 81.6277 33.3097 81.6705 33.1991C81.7132 33.0885 81.7782 32.9878 81.8614 32.9031C81.9896 32.7888 82.1391 32.7007 82.3015 32.644C82.4639 32.5874 82.6358 32.5632 82.8076 32.5728H84.1505V35.8106H83.7842V34.572H82.8425L81.8789 35.8106H81.4428L82.4849 34.5111Z" fill="#6D6A78"/>
<path d="M86.1394 32.5725H86.51V34.011H88.3849V32.5725H88.7467V35.8102H88.3849V34.3543H86.51V35.8102H86.1394V32.5725Z" fill="#6D6A78"/>
<path d="M90.7303 32.5725H91.0966V34.011H92.9714V32.5725H93.3377V35.8102H92.9714V34.3543H91.0966V35.8102H90.7303V32.5725Z" fill="#6D6A78"/>
<path d="M98.186 32.5945H98.5391V35.8105H98.1729L98.186 32.5945ZM96.5553 35.4976C97.0698 35.4976 97.4011 35.2673 97.4011 34.8066C97.4011 34.3459 97.0654 34.1764 96.5291 34.1764H95.6876V35.4802L96.5553 35.4976ZM95.317 32.5945H95.6876V33.8462H96.5073C97.2006 33.8462 97.7674 34.1243 97.7674 34.8023C97.7674 35.4802 97.2965 35.8322 96.564 35.8322H95.317V32.5945Z" fill="#6D6A78"/>
<path d="M100.532 32.5725H102.878V32.9027H100.898V34.011H102.669V34.3412H100.898V35.4755H102.9V35.8102H100.532V32.5725Z" fill="#6D6A78"/>
<path d="M109.043 35.4759V32.9031H107.635V33.3377C107.661 34.0776 107.512 34.8132 107.199 35.4846L109.043 35.4759ZM106.462 35.4759H106.793C107.163 34.754 107.333 33.9469 107.286 33.1378V32.5945H109.409V35.4976H109.845L109.789 36.5537H109.483V35.8105H106.867L106.802 36.5319H106.492L106.462 35.4759Z" fill="#6D6A78"/>
<path d="M114.188 34.1894C114.175 33.94 114.089 33.6999 113.94 33.4989C113.791 33.2979 113.587 33.145 113.351 33.0591C113.116 32.9732 112.861 32.9581 112.617 33.0158C112.373 33.0735 112.152 33.2013 111.98 33.3834C111.809 33.5655 111.695 33.7939 111.653 34.04C111.61 34.2862 111.642 34.5393 111.743 34.7679C111.844 34.9964 112.01 35.1903 112.221 35.3255C112.431 35.4607 112.677 35.5311 112.928 35.528C113.101 35.5277 113.272 35.4922 113.43 35.4239C113.589 35.3556 113.732 35.2557 113.851 35.1305C113.969 35.0052 114.061 34.8572 114.121 34.6954C114.18 34.5336 114.206 34.3615 114.196 34.1894M111.266 34.1894C111.271 33.864 111.371 33.547 111.556 33.2784C111.74 33.0098 112 32.8015 112.303 32.6797C112.606 32.5579 112.938 32.528 113.258 32.5938C113.578 32.6596 113.871 32.8182 114.101 33.0495C114.331 33.2809 114.487 33.5748 114.549 33.8942C114.612 34.2137 114.578 34.5445 114.453 34.8451C114.328 35.1456 114.116 35.4026 113.845 35.5836C113.573 35.7647 113.254 35.8617 112.928 35.8626C112.708 35.8638 112.491 35.8212 112.288 35.7372C112.085 35.6532 111.901 35.5296 111.747 35.3736C111.593 35.2177 111.472 35.0325 111.391 34.8291C111.31 34.6258 111.271 34.4082 111.275 34.1894" fill="#6D6A78"/>
<path d="M116.385 32.5725H116.76L117.942 34.3369L119.124 32.5725H119.499V35.8102H119.132V33.1852L117.946 34.9236H117.929L116.747 33.1896V35.8102H116.385V32.5725Z" fill="#6D6A78"/>
<path d="M123.58 34.6242L122.843 32.9771L122.084 34.6242H123.58ZM122.677 32.5512H123.017L124.5 35.8107H124.103L123.724 34.9415H121.958L121.574 35.8107H121.212L122.677 32.5512Z" fill="#6D6A78"/>
</g>
</g>
</svg>
