<svg width="160" height="50" viewBox="0 0 160 50" fill="none" xmlns="http://www.w3.org/2000/svg">
<g id="Name=Brus House" clip-path="url(#clip0_8_2896)">
<g id="Vector">
<path d="M23.16 20.76L12.81 26.75L2.45 20.76V16.91L11.58 22.18L14.03 20.76L2.45 14.08V8.81L12.81 2.83L23.16 8.81V12.66L14.03 7.39L11.58 8.81L23.16 15.5H25.61V7.39L12.81 0L0 7.39V42.6L9.13 47.88V45.04L2.45 41.19V23.6L11.58 28.86V34.8H14.03V28.86L23.16 23.6V41.19L14.03 46.46V39.37H11.58V49.29L12.81 50L25.61 42.6V17.94H23.16V20.76Z" fill="#E57E44"/>
<path d="M42.75 13.9178H45.4549V23.9323H48.5429V13.9178H51.2479V11.1582H42.75V13.9178Z" fill="#746C7B"/>
<path d="M73.6217 10.8926C69.6893 10.8926 66.8281 13.6991 66.8281 17.5611C66.8281 21.4778 69.619 24.214 73.6217 24.214C77.6165 24.214 80.4152 21.4778 80.4152 17.5611C80.4152 13.6288 77.6165 10.8926 73.6217 10.8926ZM73.6217 21.3449C71.4796 21.3449 69.9786 19.7891 69.9786 17.5611C69.9786 15.3252 71.4718 13.7617 73.6217 13.7617C75.7637 13.7617 77.2647 15.3252 77.2647 17.5611C77.2569 19.7813 75.7559 21.3449 73.6217 21.3449Z" fill="#746C7B"/>
<path d="M87.2013 15.0123L84.8247 11.1582H81.166L85.6065 18.1629V23.9323H88.6867V18.1707L93.2366 11.1582H89.5701L87.2013 15.0123Z" fill="#746C7B"/>
<path d="M102.915 15.8175H98.5606V11.1582H95.4805V23.9323H98.5606V18.5694H102.915V23.9323H105.995V11.1582H102.915V15.8175Z" fill="#746C7B"/>
<path d="M116.136 10.8926C112.133 10.8926 109.35 13.6366 109.35 17.5611C109.35 21.4778 112.141 24.214 116.136 24.214C120.131 24.214 122.922 21.4778 122.922 17.5611C122.922 13.6288 120.131 10.8926 116.136 10.8926ZM116.136 21.3449C113.994 21.3449 112.493 19.7891 112.493 17.5611C112.493 15.3252 113.994 13.7617 116.136 13.7617C118.278 13.7617 119.771 15.3252 119.771 17.5611C119.771 19.7813 118.278 21.3449 116.136 21.3449Z" fill="#746C7B"/>
<path d="M133.538 19.0853C133.538 19.8984 133.272 20.3753 133.046 20.6411C132.874 20.8521 132.365 21.3368 131.419 21.3368C130.466 21.3368 129.965 20.8443 129.778 20.6254C129.559 20.3753 129.293 19.9062 129.293 19.0775V11.1582H126.213V18.8899C126.213 20.3753 126.526 21.4697 127.19 22.3219C128.081 23.5023 129.66 24.2059 131.419 24.2059C133.171 24.2059 134.75 23.5023 135.633 22.3297C136.306 21.4776 136.618 20.3831 136.618 18.8899V11.1582H133.538V19.0853Z" fill="#746C7B"/>
<path d="M160.001 13.9178V11.1582H152.59V23.9323H160.001V21.1727H155.67V18.6241H159.821V15.8723H155.67V13.9178H160.001Z" fill="#746C7B"/>
<path d="M63.4353 15.1452C63.4353 13.9178 62.9818 12.8859 62.1141 12.1589C61.6137 11.7211 60.7147 11.1582 58.815 11.1582H54.9609V23.9323H58.0411V19.101C58.0645 19.101 58.088 19.101 58.1192 19.101C58.3694 19.101 58.7368 19.0932 59.159 19.0541L61.215 23.9323H64.8581L61.9812 18.1941C62.9193 17.514 63.4353 16.4351 63.4353 15.1452ZM58.3381 16.7009H58.0411V13.8084H58.3772C59.6437 13.8084 60.2847 14.2931 60.2847 15.2468C60.2847 16.443 59.2293 16.7009 58.3381 16.7009Z" fill="#746C7B"/>
<path d="M39.4509 17.1702C39.0053 16.709 38.0828 16.2946 36.6678 15.9116L36.5115 15.8725C35.8626 15.6927 35.4248 15.5207 35.1903 15.3252C34.9558 15.1376 34.8463 14.8796 34.8463 14.5669C34.8463 14.2542 34.9714 13.9962 35.2372 13.8008C35.4952 13.5975 35.8313 13.5037 36.2535 13.5037C36.6522 13.5037 37.0665 13.5897 37.4731 13.7617C37.8874 13.9337 38.2939 14.1839 38.677 14.52L39.7558 12.034C39.2008 11.6587 38.6066 11.3695 37.9812 11.1819C37.3558 10.9942 36.6913 10.9004 35.9877 10.9004C34.6978 10.9004 33.6424 11.2835 32.8372 12.0496C32.0241 12.8158 31.6176 13.8008 31.6176 15.0125C31.6176 15.9507 31.8756 16.6777 32.3916 17.2171C32.9075 17.7566 33.7831 18.1865 35.0261 18.5305C35.933 18.7729 36.5115 19.0074 36.7695 19.2341C37.0275 19.4686 37.1604 19.7892 37.1604 20.2113C37.1604 20.5944 37.0118 20.9071 36.7147 21.1494C36.4177 21.3996 36.0424 21.5247 35.5734 21.5247C35.073 21.5247 34.5805 21.384 34.0802 21.0947C33.5798 20.8055 33.0717 20.3677 32.5635 19.7813L31 22.3534C31.6645 22.9944 32.3681 23.4635 33.0873 23.7606C33.8144 24.0654 34.6118 24.214 35.4952 24.214C36.9649 24.214 38.1454 23.7996 39.0288 22.9866C39.9122 22.1736 40.35 21.0869 40.35 19.7423C40.35 19.2106 40.2718 18.7259 40.1154 18.2882C39.9825 17.8504 39.748 17.4751 39.4509 17.1702Z" fill="#746C7B"/>
<path d="M148.328 17.1702C147.883 16.709 146.96 16.2946 145.553 15.9115L145.397 15.8725C144.748 15.6926 144.302 15.5207 144.075 15.3252C143.849 15.1376 143.731 14.8796 143.731 14.5669C143.731 14.2542 143.864 13.9962 144.122 13.8008C144.38 13.5975 144.716 13.5037 145.139 13.5037C145.537 13.5037 145.952 13.5897 146.366 13.7617C146.78 13.9337 147.179 14.1838 147.578 14.52L148.657 12.034C148.094 11.6587 147.507 11.3695 146.882 11.1818C146.256 10.9942 145.592 10.9004 144.896 10.9004C143.606 10.9004 142.551 11.2835 141.746 12.0496C140.933 12.8157 140.526 13.8008 140.526 15.0125C140.526 15.9506 140.784 16.6777 141.3 17.2171C141.816 17.7565 142.692 18.1865 143.927 18.5305C144.834 18.7728 145.412 19.0074 145.67 19.2341C145.928 19.4686 146.061 19.7891 146.061 20.2113C146.061 20.5944 145.912 20.9071 145.615 21.1494C145.318 21.3996 144.943 21.5247 144.482 21.5247C143.982 21.5247 143.489 21.3839 142.989 21.0947C142.488 20.8054 141.98 20.3676 141.472 19.7813L139.916 22.3533C140.581 22.9944 141.284 23.4634 142.004 23.7605C142.731 24.0654 143.536 24.2139 144.411 24.2139C145.889 24.2139 147.062 23.7996 147.945 22.9866C148.828 22.1735 149.266 21.0869 149.266 19.7422C149.266 19.2106 149.188 18.7259 149.032 18.2881C148.86 17.8503 148.633 17.4751 148.328 17.1702Z" fill="#746C7B"/>
<path d="M31.0078 37.3332H31.5551C31.985 36.3247 32.1961 35.3396 32.1961 33.3461V32.666H36.4333V37.3332H37.1291L36.9649 39.7019H35.8939V38.4902H32.2508L32.1648 39.7019H31.0078V37.3332ZM33.4313 33.823V34.4172C33.4313 35.6524 33.2437 36.5279 32.9075 37.341H35.1512V33.8308H33.4313V33.823Z" fill="#746C7B"/>
<path d="M37.9805 35.5821C37.9805 33.9247 39.2861 32.5723 41.0841 32.5723C42.8822 32.5723 44.1721 33.9091 44.1721 35.5821C44.1721 37.2394 42.8666 38.5919 41.0685 38.5919C39.2704 38.5919 37.9805 37.2551 37.9805 35.5821ZM42.8353 35.5821C42.8353 34.5814 42.1004 33.7527 41.0685 33.7527C40.0366 33.7527 39.3173 34.5658 39.3173 35.5821C39.3173 36.5828 40.0522 37.4114 41.0841 37.4114C42.1161 37.4114 42.8353 36.5984 42.8353 35.5821Z" fill="#746C7B"/>
<path d="M45.5254 32.666H46.9091L48.4414 35.1286L49.9737 32.666H51.3574V38.4902H50.0831V34.6908L48.4414 37.1768H48.4101L46.7841 34.7142V38.4902H45.5254V32.666Z" fill="#746C7B"/>
<path d="M54.9529 32.627H56.1333L58.6272 38.4903H57.2904L56.7588 37.1847H54.2962L53.7646 38.4903H52.459L54.9529 32.627ZM56.3053 36.0512L55.5314 34.1593L54.7574 36.0512H56.3053Z" fill="#746C7B"/>
<path d="M67.4702 38.4902H66.2037V34.6751L63.6552 38.498H62.4512V32.6738H63.7177V36.4967L66.2819 32.6738H67.4702V38.4902Z" fill="#746C7B"/>
<path d="M73.255 34.1361C73.255 34.8632 72.8328 35.2541 72.3169 35.473C72.9423 35.6762 73.4035 36.1062 73.4035 36.8489C73.4035 37.8574 72.5436 38.6 71.1911 38.6C69.9716 38.6 69.2289 38.2561 68.6035 37.6228L69.2836 36.7316C69.7605 37.2007 70.3781 37.4743 71.1364 37.4743C71.6758 37.4743 72.1214 37.2241 72.1214 36.7785C72.1214 36.2938 71.6289 36.0984 70.9644 36.0984H70.2921V35.0352H70.9488C71.6211 35.0352 71.9885 34.8006 71.9885 34.3629C71.9885 33.9563 71.6055 33.714 71.0504 33.714C70.3312 33.714 69.8699 33.9563 69.4791 34.355L68.8067 33.542C69.3461 32.9791 70.0497 32.5882 71.152 32.5882C72.3951 32.5726 73.255 33.2293 73.255 34.1361Z" fill="#746C7B"/>
<path d="M77.4375 32.666H78.7196V35.2146L81.0805 32.666H82.6284L80.2597 35.1364L82.7379 38.4902H81.1978L79.3919 36.012L78.7196 36.7077V38.4902H77.4375V32.666Z" fill="#746C7B"/>
<path d="M88.656 38.4902H87.3739V33.823H85.6931V34.2608C85.6931 37.6928 85.138 38.5605 83.8012 38.5605C83.5901 38.5605 83.2852 38.5293 83.1289 38.4824L83.2149 37.427C83.2696 37.4348 83.3321 37.4426 83.4181 37.4426C84.1061 37.4426 84.497 37.0048 84.497 33.8621V32.6582H88.656V38.4902Z" fill="#746C7B"/>
<path d="M90.2656 32.666H94.6592V33.8074H91.5399V34.9878H94.2839V36.1292H91.5399V37.3488H94.6983V38.4902H90.2656V32.666Z" fill="#746C7B"/>
<path d="M96.0508 32.666H100.445V33.8074H97.3251V34.9878H100.069V36.1292H97.3251V37.3488H100.484V38.4902H96.0508V32.666Z" fill="#746C7B"/>
<path d="M101.836 32.666H103.118V34.9722H105.479V32.666H106.761V38.4902H105.479V36.1527H103.118V38.4902H101.836V32.666Z" fill="#746C7B"/>
<path d="M108.113 35.5821C108.113 33.9247 109.418 32.5723 111.216 32.5723C113.015 32.5723 114.304 33.9091 114.304 35.5821C114.304 37.2394 112.999 38.5919 111.201 38.5919C109.403 38.5919 108.113 37.2551 108.113 35.5821ZM112.968 35.5821C112.968 34.5814 112.233 33.7527 111.201 33.7527C110.169 33.7527 109.45 34.5658 109.45 35.5821C109.45 36.5828 110.185 37.4114 111.216 37.4114C112.248 37.4114 112.968 36.5984 112.968 35.5821Z" fill="#746C7B"/>
<path d="M116.94 38.4902H115.658V32.666H119.723V33.823H116.932V38.4902H116.94Z" fill="#746C7B"/>
<path d="M120.332 35.5821C120.332 33.9247 121.638 32.5723 123.436 32.5723C125.234 32.5723 126.524 33.9091 126.524 35.5821C126.524 37.2394 125.218 38.5919 123.42 38.5919C121.622 38.5919 120.332 37.2551 120.332 35.5821ZM125.187 35.5821C125.187 34.5814 124.452 33.7527 123.42 33.7527C122.388 33.7527 121.669 34.5658 121.669 35.5821C121.669 36.5828 122.404 37.4114 123.436 37.4114C124.468 37.4114 125.187 36.5984 125.187 35.5821Z" fill="#746C7B"/>
<path d="M131.864 34.8393H133.404C134.718 34.8393 135.452 35.5585 135.452 36.6452C135.452 37.8335 134.632 38.4902 133.279 38.4902H130.582V32.666H135.054V33.823H131.864V34.8393ZM131.864 35.9025V37.3332H133.279C133.881 37.3332 134.17 37.0986 134.17 36.5905C134.17 36.1449 133.881 35.9025 133.271 35.9025H131.864Z" fill="#746C7B"/>
<path d="M139.095 32.666C140.487 32.666 141.323 33.4868 141.323 34.6986C141.323 36.0432 140.276 36.7468 138.97 36.7468H137.993V38.498H136.711V32.666H139.095ZM139.017 35.6054C139.658 35.6054 140.034 35.2224 140.034 34.7064C140.034 34.1357 139.635 33.823 138.994 33.823H138.001V35.6054H139.017Z" fill="#746C7B"/>
<path d="M146.187 32.666H147.579L145.343 37.169C144.835 38.1853 144.256 38.584 143.435 38.584C142.935 38.584 142.544 38.4511 142.177 38.24L142.677 37.3019C142.911 37.4426 143.146 37.4895 143.365 37.4895C143.599 37.4895 143.865 37.3801 144.1 37.0205L141.77 32.6582H143.201L144.78 35.7384L146.187 32.666Z" fill="#746C7B"/>
<path d="M147.969 35.5821C147.969 33.9247 149.219 32.5723 151.01 32.5723C152.104 32.5723 152.722 32.9866 153.261 33.5182L152.495 34.4016C152.049 33.9951 151.666 33.7527 150.994 33.7527C150.009 33.7527 149.305 34.5658 149.305 35.5821C149.305 36.5828 149.993 37.4114 150.994 37.4114C151.659 37.4114 152.065 37.1456 152.526 36.7313L153.339 37.6069C152.737 38.2479 152.073 38.5997 150.955 38.5997C149.235 38.5919 147.969 37.2707 147.969 35.5821Z" fill="#746C7B"/>
<path d="M156.326 32.627H157.506L160 38.4903H158.663L158.132 37.1847H155.669L155.137 38.4903H153.832L156.326 32.627ZM157.67 36.0512L156.896 34.1593L156.122 36.0512H157.67Z" fill="#746C7B"/>
</g>
</g>
<defs>
<clipPath id="clip0_8_2896">
<rect width="160" height="50" fill="white"/>
</clipPath>
</defs>
</svg>
