<svg width="112" height="31" viewBox="0 0 112 31" fill="none" xmlns="http://www.w3.org/2000/svg">
<g id="Symbols">
<g id="00_HEADER">
<g id="Logo-Rixos">
<path id="Vector" fill-rule="evenodd" clip-rule="evenodd" d="M48.2452 26.2072C48.868 26.2072 49.3922 26.414 49.8172 26.825C50.2791 27.2704 50.5093 27.864 50.5093 28.604C50.5093 29.3573 50.271 29.9563 49.7931 30.4008C49.3661 30.7996 48.8505 30.9975 48.2452 30.998C47.5974 30.998 47.061 30.7776 46.6329 30.3368C46.1993 29.8875 45.9822 29.3099 45.9822 28.604C45.9822 27.864 46.2134 27.2689 46.6771 26.8215C47.1024 26.4122 47.6247 26.2079 48.2452 26.2072ZM66.1747 26.2072V26.3386C65.8806 26.352 65.6829 26.3945 65.5808 26.466C65.4815 26.5377 65.4327 26.6896 65.4327 26.9251V30.3187C65.4327 30.3975 65.4472 30.4596 65.4752 30.5053C65.5063 30.5491 65.5733 30.5765 65.6747 30.588C65.7355 30.5948 65.7974 30.5994 65.8629 30.6015C65.9306 30.6044 66.0547 30.6055 66.2376 30.6055C66.9486 30.6055 67.4285 30.5535 67.6794 30.4494C67.929 30.3461 68.1708 30.0823 68.4051 29.6568H68.6096L68.2175 30.8812H63.9124V30.7536C64.2069 30.7257 64.3967 30.6803 64.4829 30.6156C64.5722 30.5491 64.6159 30.3818 64.6159 30.1152V26.9731C64.6159 26.7221 64.5728 26.5594 64.4874 26.4834C64.4014 26.4051 64.2106 26.3569 63.9124 26.3386V26.2072H66.1747ZM41.5562 26.2072V26.3386C41.3023 26.3569 41.1373 26.4041 41.0618 26.4795C40.9854 26.5555 40.9472 26.7204 40.9472 26.9731V28.3489H43.0332V26.9731C43.0332 26.7204 42.9967 26.5555 42.9232 26.4795C42.849 26.4041 42.6841 26.3569 42.4297 26.3386V26.2072H44.3407V26.3386C44.0885 26.3569 43.9229 26.4041 43.8473 26.4795C43.7726 26.5555 43.7363 26.7204 43.7363 26.9731V30.1152C43.7363 30.3728 43.7726 30.5389 43.8473 30.6122C43.9229 30.6832 44.0885 30.7307 44.3407 30.7536V30.8812H42.4297V30.7536C42.7004 30.7257 42.8681 30.6754 42.9322 30.6015C42.9998 30.5282 43.0332 30.3388 43.0332 30.0318V28.6597H40.9472V30.1152C40.9472 30.3728 40.9854 30.5389 41.0618 30.6122C41.1373 30.6859 41.3023 30.733 41.5562 30.7536V30.8812H39.6435V30.7536C39.9126 30.7234 40.0803 30.673 40.1477 30.6015C40.2148 30.5282 40.2486 30.3388 40.2486 30.0318V26.9731C40.2486 26.7204 40.2099 26.5555 40.1342 26.4795C40.06 26.4041 39.8968 26.3569 39.6435 26.3386V26.2072H41.5562ZM56.8234 26.2072L56.8665 27.4076H56.6726C56.5769 27.0308 56.4539 26.7853 56.3061 26.6729C56.1601 26.5583 55.8511 26.5 55.3787 26.5H54.924V30.1153C54.924 30.3893 54.9742 30.5592 55.0722 30.6257C55.1697 30.6907 55.3846 30.733 55.7168 30.7538V30.8812H53.3412V30.7538C53.6855 30.7303 53.9005 30.681 53.9842 30.6051C54.0701 30.5289 54.1128 30.3384 54.1128 30.0326V26.5H53.6591C53.2074 26.5 52.8996 26.5573 52.7358 26.6697C52.5732 26.7825 52.4514 27.0278 52.3693 27.4076H52.1693L52.217 26.2072H56.8234ZM72.9966 26.2072L73.1488 27.652H72.9827C72.8702 27.2165 72.687 26.9132 72.4356 26.7408C72.1856 26.5681 71.9385 26.4827 71.6923 26.4827C71.5026 26.4827 71.3355 26.538 71.1926 26.6479C71.0513 26.7563 70.9814 26.9074 70.9814 27.1023C70.9814 27.2762 71.0358 27.426 71.1445 27.5495C71.2537 27.675 71.4231 27.8066 71.6516 27.943L72.2649 28.3113C72.6485 28.5406 72.9178 28.7509 73.0754 28.9437C73.2289 29.1381 73.3056 29.3677 73.3068 29.633C73.3068 29.9885 73.1678 30.2852 72.8911 30.5237C72.6159 30.7619 72.265 30.8812 71.8365 30.8812C71.62 30.8812 71.3944 30.8414 71.1583 30.7619C70.9249 30.6827 70.7909 30.6429 70.7567 30.6429C70.6749 30.6429 70.6199 30.667 70.5906 30.7158C70.5631 30.7647 70.5448 30.8163 70.535 30.8709H70.3827L70.1753 29.4273H70.3347C70.4522 29.7322 70.5912 29.975 70.7501 30.156C71.0271 30.4721 71.3707 30.6294 71.7806 30.6294C72.0036 30.6294 72.1951 30.5614 72.3568 30.4244C72.5198 30.2874 72.6016 30.0963 72.6016 29.8515C72.6016 29.6303 72.5198 29.4386 72.3568 29.2743C72.2495 29.1707 72.0252 29.0156 71.6825 28.8077L71.0878 28.4471C70.9073 28.3364 70.7644 28.2247 70.6573 28.1122C70.4611 27.8978 70.3616 27.6622 70.3616 27.4034C70.3616 27.0613 70.4786 26.7762 70.713 26.5486C70.9465 26.3216 71.2554 26.2077 71.6416 26.2072C71.8007 26.2072 71.9918 26.2459 72.2137 26.3238C72.4382 26.3988 72.5664 26.4364 72.5988 26.4364C72.6843 26.4364 72.7435 26.4166 72.7747 26.377C72.8096 26.3372 72.8349 26.2808 72.8537 26.2072H72.9966ZM61.9082 26.2072L61.9346 27.2215H61.7312C61.6634 26.9089 61.5612 26.7065 61.426 26.6142C61.2909 26.5225 60.9877 26.4761 60.5182 26.4761H59.4294C59.3121 26.4761 59.2398 26.4934 59.2106 26.5281C59.1845 26.5606 59.1714 26.622 59.1714 26.7143V28.2908H60.4052C60.7459 28.2908 60.9641 28.2456 61.0582 28.1561C61.152 28.0668 61.2281 27.885 61.2853 27.6111H61.4728V29.2462H61.2853C61.2255 28.973 61.1488 28.7919 61.0549 28.7045C60.9609 28.6152 60.7441 28.5699 60.4052 28.5699H59.1714V30.3187C59.1714 30.4596 59.2221 30.5423 59.3204 30.5674C59.4219 30.5926 59.7239 30.6055 60.2251 30.6055C60.7675 30.6055 61.1678 30.5535 61.426 30.4494C61.6841 30.3438 61.9171 30.0901 62.1226 29.6881H62.3466L61.9819 30.8812H57.6494V30.7536C57.9437 30.7257 58.1333 30.6803 58.2211 30.6156C58.3093 30.5491 58.3541 30.3818 58.3541 30.1152V26.9731C58.3541 26.7221 58.3103 26.5594 58.2243 26.4834C58.1385 26.4051 57.947 26.3569 57.6494 26.3386V26.2072H61.9082ZM48.2452 26.4589C47.8319 26.4589 47.4808 26.6342 47.1927 26.9842C46.9072 27.3327 46.7652 27.8722 46.7652 28.604C46.7652 29.3348 46.9072 29.875 47.1927 30.225C47.4792 30.5732 47.8296 30.7468 48.2452 30.7468C48.653 30.7468 48.9999 30.5776 49.288 30.2386C49.5784 29.8975 49.7226 29.3528 49.7226 28.604C49.7226 27.8474 49.5772 27.3007 49.284 26.9638C48.9923 26.6271 48.6466 26.4596 48.2452 26.4589ZM51.1752 4.46733L56.0509 11.4909L60.9255 4.46733H63.3119L57.5442 13.2494L62.8549 21.2933L111.6 21.3635L101.992 22.8634L61.5234 23.0034L56.0509 14.8084L50.5777 23.0034L10.1092 22.8634L0.5 21.3635L49.2462 21.2933L54.5565 13.2494L48.7894 4.46733H51.1752ZM93.7472 7.51104L94.0923 11.1217H93.7162C93.4612 10.0343 93.0503 9.27492 92.4842 8.84399C91.9222 8.41362 91.366 8.19853 90.8142 8.19853C90.3855 8.19853 90.0095 8.33658 89.6885 8.61286C89.3727 8.8827 89.2134 9.26091 89.2134 9.74694C89.2134 10.1832 89.3367 10.5563 89.5809 10.865C89.8264 11.1802 90.206 11.5081 90.7227 11.8503L92.1005 12.7695C92.9635 13.3436 93.571 13.8708 93.924 14.3511C94.2705 14.8371 94.4437 15.4116 94.4443 16.0739C94.4443 16.9624 94.133 17.705 93.5105 18.3016C92.8917 18.8977 92.1005 19.1961 91.1355 19.1961C90.6509 19.1961 90.143 19.0964 89.612 18.8977C89.0854 18.699 88.7839 18.5993 88.7082 18.5993C88.5245 18.5993 88.3987 18.6601 88.3327 18.7823C88.2712 18.9036 88.2304 19.0326 88.21 19.1705H87.8662L87.3984 15.5605H87.7584C88.0237 16.3223 88.3354 16.93 88.6922 17.3823C89.3159 18.1719 90.0894 18.5671 91.0135 18.5671C91.5132 18.5671 91.9447 18.3955 92.3072 18.0532C92.6759 17.7109 92.859 17.2328 92.859 16.6205C92.859 16.0685 92.6759 15.5884 92.3072 15.1794C92.0677 14.9199 91.562 14.5306 90.7905 14.0121L89.4519 13.109C89.0474 12.834 88.7264 12.5548 88.4864 12.2731C88.0417 11.7373 87.82 11.1472 87.82 10.5006C87.82 9.64446 88.0825 8.93265 88.608 8.36423C89.1342 7.79544 89.8312 7.51104 90.699 7.51104C91.0564 7.51104 91.486 7.60836 91.9852 7.8006C92.4917 7.98878 92.7792 8.08223 92.8515 8.08223C93.045 8.08223 93.1783 8.03302 93.2495 7.93386C93.3262 7.83433 93.3852 7.69351 93.4253 7.51104H93.7472ZM73.3069 7.51104C74.8155 7.51104 76.0831 8.01242 77.1125 9.0161C78.2294 10.1019 78.7869 11.5499 78.7869 13.3581C78.7869 15.1937 78.21 16.6555 77.0549 17.7402C76.0208 18.7107 74.771 19.1961 73.3069 19.1961C71.7394 19.1961 70.4379 18.6594 69.4041 17.5839C68.3529 16.4866 67.8267 15.0785 67.8267 13.3581C67.8267 11.5499 68.3876 10.0997 69.5097 9.008C70.5384 8.01021 71.8044 7.51159 73.3069 7.51104ZM73.3069 8.12304C72.3048 8.12304 71.4555 8.55043 70.7597 9.40484C70.0677 10.2541 69.7221 11.5718 69.7221 13.3581C69.7221 15.1387 70.0677 16.4566 70.7597 17.311C71.4504 18.1602 72.2997 18.5841 73.3069 18.5841C74.2917 18.5841 75.1336 18.1705 75.8305 17.3439C76.5334 16.5114 76.884 15.1827 76.884 13.3581C76.884 11.5112 76.5304 10.1772 75.8225 9.35514C75.1143 8.53368 74.2757 8.1236 73.3069 8.12304ZM41.2092 7.51104V7.81737C40.563 7.84943 40.1445 7.95423 39.9535 8.13104C39.7622 8.30265 39.6668 8.69227 39.6668 9.29812V16.6306C39.6668 17.269 39.7622 17.666 39.9535 17.8213C40.1445 17.9718 40.563 18.0708 41.2092 18.1192V18.4171H36.512V18.1192C37.1577 18.0708 37.5767 17.9718 37.7675 17.8213C37.959 17.666 38.0544 17.269 38.0544 16.6306V9.29812C38.0544 8.69227 37.959 8.30265 37.7675 8.13104C37.5767 7.95423 37.1577 7.84943 36.512 7.81737V7.51104H41.2092ZM22.1077 7.51104C23.0206 7.51104 23.7805 7.63196 24.3897 7.87309C25.5437 8.32953 26.1221 9.16899 26.1221 10.3925C26.1221 11.2139 25.8646 11.8444 25.3485 12.2842C24.8383 12.7246 24.142 13.0139 23.2597 13.1529L26.5245 17.3304C26.7252 17.5884 26.9259 17.7763 27.1273 17.894C27.3281 18.0122 27.5856 18.0871 27.9004 18.1192V18.4171H25.3485L21.5739 13.3465L20.6926 13.3861V16.6307C20.6926 17.2427 20.7804 17.631 20.9562 17.7978C21.1362 17.9589 21.5252 18.0658 22.1231 18.1192V18.4171H17.7231V18.1192C18.3313 18.0601 18.7098 17.9368 18.8597 17.7489C19.0086 17.5614 19.0837 17.1239 19.0837 16.4371V9.29797C19.0837 8.71809 18.9993 8.34028 18.8284 8.16347C18.6635 7.98111 18.2955 7.86574 17.7231 7.81737V7.51104H22.1077ZM21.6676 8.13929C21.218 8.13929 20.9426 8.17368 20.8398 8.24337C20.7413 8.30822 20.6926 8.46353 20.6926 8.71074V12.7758C21.8325 12.7317 22.6467 12.6085 23.1369 12.4046C23.9771 12.0454 24.3968 11.3694 24.3968 10.3762C24.3968 9.42122 24.0209 8.76932 23.2685 8.42072C22.8664 8.2328 22.3319 8.13982 21.6676 8.13929ZM56.0839 0.5L57.3554 2.20632L56.6359 6.35716L58.123 2.20632H59.998L56.0839 8.29005L52.1693 2.20632H54.0444L55.5326 6.35716L54.8127 2.20632L56.0839 0.5Z" fill="#555555"/>
</g>
</g>
</g>
</svg>
