<svg width="114" height="28" viewBox="0 0 114 28" fill="none" xmlns="http://www.w3.org/2000/svg">
<g id="Group">
<path id="Vector" d="M15.7146 11.2529L12.2288 8.98714L10.6602 7.94141C10.1374 8.37713 9.4402 9.07428 8.74305 9.77144C7.26159 11.2529 9.00448 12.1243 9.00448 12.1243C9.00448 12.1243 10.1374 12.8215 11.9674 14.1287C13.7974 15.4358 12.4903 16.8301 12.316 17.0916C12.1417 17.2659 1.77148 26.416 1.77148 26.416L2.99151 26.6775C2.99151 26.6775 15.976 15.4358 16.0632 15.3487C18.8518 12.7344 15.7146 11.2529 15.7146 11.2529Z" fill="#555555"/>
<g id="Group_2">
<g id="Group_3">
<path id="Vector_2" d="M0.0288086 0.0112305V27.026H20.5078V0.0112305H0.0288086ZM19.6363 26.1546H0.813109V0.795531H15.802C13.1876 3.06129 3.95031 11.0786 3.77602 11.1657C1.07454 13.7801 4.21174 15.1744 4.21174 15.1744L4.82176 15.523L9.26613 18.3987C9.78899 17.963 10.4861 17.353 11.1833 16.6558C12.6648 15.1744 10.9219 14.3029 10.9219 14.3029C10.9219 14.3029 9.78899 13.6058 7.95896 12.2986C6.12892 10.9914 7.43609 9.59713 7.61038 9.33569C7.87181 9.33569 15.7148 2.36413 17.4577 0.795531H19.7235V26.1546H19.6363Z" fill="#555555"/>
</g>
</g>
<g id="Group_4">
<path id="Vector_3" d="M31.2264 15.1741C30.3549 14.6513 29.6578 14.0413 29.1349 13.1698C28.612 12.2984 28.3506 11.3398 28.3506 10.294C28.3506 9.24831 28.612 8.28972 29.1349 7.41828C29.6578 6.54683 30.3549 5.84968 31.2264 5.41395C32.0978 4.89109 33.1435 4.7168 34.2764 4.7168C35.1479 4.7168 36.0193 4.89109 36.7165 5.15252C37.5008 5.5011 38.1108 5.93682 38.6336 6.54683L37.3265 7.76685C36.5422 6.89541 35.5836 6.45969 34.3636 6.45969C33.5793 6.45969 32.9692 6.63398 32.3592 6.98255C31.7492 7.33113 31.3135 7.76685 30.9649 8.37687C30.6163 8.98688 30.4421 9.59689 30.4421 10.3812C30.4421 11.1655 30.6163 11.7755 30.9649 12.3855C31.3135 12.9955 31.7492 13.4312 32.3592 13.7798C32.9692 14.1284 33.6664 14.3027 34.3636 14.3027C35.4964 14.3027 36.5422 13.867 37.3265 12.9955L38.6336 14.2155C38.1108 14.8256 37.5008 15.2613 36.7165 15.6099C35.9322 15.9584 35.1479 16.0456 34.2764 16.0456C33.1435 15.9584 32.1849 15.697 31.2264 15.1741Z" fill="#555555"/>
<path id="Vector_4" d="M40.812 4.8042H42.8163V12.6472L48.7422 4.8042H50.5722V15.7844H48.5679V7.9414L42.7292 15.7844H40.812V4.8042Z" fill="#555555"/>
<path id="Vector_5" d="M55.9763 15.1741C55.1049 14.6513 54.4078 14.0413 53.8849 13.1698C53.362 12.2984 53.1006 11.3398 53.1006 10.294C53.1006 9.24831 53.362 8.28972 53.8849 7.41828C54.4078 6.54683 55.1049 5.84968 55.9763 5.41395C56.8478 4.89109 57.8935 4.7168 59.0264 4.7168C59.8979 4.7168 60.7693 4.89109 61.4665 5.15252C62.2508 5.5011 62.8608 5.93682 63.3836 6.54683L62.0765 7.76685C61.2922 6.89541 60.3336 6.45969 59.1136 6.45969C58.3293 6.45969 57.7192 6.63398 57.1092 6.98255C56.4992 7.33113 56.0635 7.76685 55.7149 8.37687C55.3663 8.98688 55.1921 9.59689 55.1921 10.3812C55.1921 11.1655 55.3663 11.7755 55.7149 12.3855C56.0635 12.9955 56.4992 13.4312 57.1092 13.7798C57.7192 14.1284 58.4164 14.3027 59.1136 14.3027C60.2464 14.3027 61.2922 13.867 62.0765 12.9955L63.3836 14.2155C62.8608 14.8256 62.2508 15.2613 61.4665 15.6099C60.6822 15.9584 59.8979 16.0456 59.0264 16.0456C57.8935 15.9584 56.8478 15.697 55.9763 15.1741Z" fill="#555555"/>
<path id="Vector_6" d="M74.1892 6.54709H70.5291V15.7844H68.5248V6.54709H64.8647V4.8042H74.1892V6.54709Z" fill="#555555"/>
<path id="Vector_7" d="M84.4716 14.0415V15.7844H76.1929V4.8042H84.2102V6.54709H78.1972V9.42286H83.513V11.0786H78.1972V14.1287H84.4716V14.0415Z" fill="#555555"/>
<path id="Vector_8" d="M97.0211 15.7844V8.46427L93.4482 14.4772H92.5768L88.9167 8.55141V15.7844H86.9995V4.8042H88.6553L93.0125 12.0372L97.2826 4.8042H98.9383V15.7844H97.0211Z" fill="#555555"/>
<path id="Vector_9" d="M109.743 13.2572H104.253L103.207 15.7844H101.116L106.083 4.8042H108.087L113.055 15.7844H110.876L109.743 13.2572ZM109.046 11.6015L106.954 6.80852L104.863 11.6015H109.046Z" fill="#555555"/>
</g>
<g id="Group_5">
<path id="Vector_10" d="M30.1819 21.4494H29.1361L28.8747 22.2337H28.439L29.3976 19.1836H29.7461L30.7047 22.2337H30.269L30.1819 21.4494ZM29.3104 21.1008H30.1819L29.659 19.7065L29.3104 21.1008Z" fill="#555555"/>
<path id="Vector_11" d="M32.0995 20.8393H31.8381V22.2337H31.4023V19.1836H31.7509V20.5779H32.0124L32.8838 19.1836H33.4067L32.4481 20.6651L33.4938 22.2337H33.0581L32.0995 20.8393Z" fill="#555555"/>
<path id="Vector_12" d="M33.9297 19.1836H34.2783V21.8851H35.4983V19.1836H35.8469V21.8851H36.1083V22.9308H35.7597V22.2337H33.9297V19.1836Z" fill="#555555"/>
<path id="Vector_13" d="M38.3728 19.1836H38.7214V22.2337H38.3728V19.8807L37.1528 22.2337H36.8042V19.1836H37.1528V21.5365L38.3728 19.1836Z" fill="#555555"/>
<path id="Vector_14" d="M41.5983 20.9265C41.5983 21.3622 41.5112 21.6236 41.3369 21.885C41.1626 22.1465 40.9011 22.2336 40.5526 22.2336C40.204 22.2336 40.0297 22.1465 39.7683 21.885C39.594 21.6236 39.5068 21.3622 39.5068 20.9265V20.3164C39.5068 19.8807 39.594 19.6193 39.7683 19.3579C39.9426 19.0964 40.204 19.0093 40.5526 19.0093C40.9011 19.0093 41.1626 19.0964 41.3369 19.3579C41.5112 19.6193 41.5983 19.8807 41.5983 20.3164V20.9265ZM41.1626 20.4036C41.1626 20.055 41.0754 19.8807 40.9883 19.7064C40.9011 19.5321 40.7269 19.445 40.4654 19.445C40.2911 19.445 40.1168 19.5321 39.9426 19.7064C39.8554 19.8807 39.7683 20.1422 39.7683 20.4036V20.9265C39.7683 21.275 39.8554 21.4493 39.9426 21.6236C40.0297 21.7979 40.204 21.885 40.4654 21.885C40.6397 21.885 40.814 21.7979 40.9883 21.6236C41.0754 21.4493 41.1626 21.275 41.1626 20.9265V20.4036Z" fill="#555555"/>
<path id="Vector_15" d="M44.2995 22.2337H43.9509V20.8393H42.7309V22.2337H42.3823V19.1836H42.7309V20.4908H43.9509V19.1836H44.2995V22.2337Z" fill="#555555"/>
<path id="Vector_16" d="M46.5654 20.8393H45.5197V21.8851H46.7397V22.2337H45.084V19.1836H46.7397V19.5322H45.5197V20.4908H46.5654V20.8393Z" fill="#555555"/>
<path id="Vector_17" d="M47.6987 21.0136V22.2337H47.3501V19.1836H48.3087C48.5701 19.1836 48.8316 19.2707 49.0058 19.445C49.1801 19.6193 49.2673 19.8808 49.2673 20.1422C49.2673 20.4036 49.1801 20.6651 49.0058 20.8393C48.8316 21.0136 48.6573 21.1008 48.3087 21.1008H47.6987V21.0136ZM47.6987 20.6651H48.3087C48.483 20.6651 48.5701 20.5779 48.7444 20.4908C48.8316 20.4036 48.8316 20.3165 48.8316 20.055C48.8316 19.8808 48.7444 19.7065 48.6573 19.6193C48.5701 19.5322 48.3958 19.445 48.3087 19.445H47.6987V20.6651Z" fill="#555555"/>
<path id="Vector_18" d="M51.8808 22.2337H51.4451V20.8393H50.225V22.2337H49.8765V19.1836H50.225V20.4908H51.4451V19.1836H51.7936V22.2337H51.8808Z" fill="#555555"/>
<path id="Vector_19" d="M54.0593 21.4494H53.0136L52.7521 22.2337H52.3164L53.275 19.1836H53.6236L54.5822 22.2337H54.1464L54.0593 21.4494ZM53.1879 21.1008H54.0593L53.6236 19.7065L53.1879 21.1008Z" fill="#555555"/>
<path id="Vector_20" d="M56.586 22.2334V21.0134H56.0631L55.5402 22.2334H55.1045L55.7145 20.9262C55.3659 20.7519 55.1916 20.4905 55.1916 20.0548C55.1916 19.7933 55.2788 19.5319 55.4531 19.3576C55.6274 19.1833 55.8017 19.0962 56.1502 19.0962H57.0217V22.1462H56.586V22.2334ZM55.6274 20.0548C55.6274 20.2291 55.7145 20.4034 55.8016 20.4905C55.8888 20.5776 56.0631 20.6648 56.1502 20.6648H56.586V19.4448H56.1502C55.9759 19.4448 55.8017 19.5319 55.7145 19.6191C55.6274 19.7062 55.6274 19.8805 55.6274 20.0548Z" fill="#555555"/>
<path id="Vector_21" d="M60.2466 19.445C60.508 19.445 60.6823 19.5321 60.8566 19.6193C61.0309 19.7064 61.118 19.8807 61.2052 20.055C61.2923 20.2293 61.3795 20.4907 61.3795 20.665C61.3795 20.9265 61.2923 21.1007 61.2052 21.275C61.118 21.4493 61.0309 21.6236 60.8566 21.7108C60.6823 21.7979 60.508 21.885 60.3337 21.885H60.2466V22.3208H59.898V21.885H59.8109C59.6366 21.885 59.4623 21.7979 59.288 21.7108C59.1137 21.6236 59.0266 21.4493 58.9394 21.275C58.8523 21.1007 58.7651 20.8393 58.7651 20.665C58.7651 20.4036 58.8523 20.2293 58.9394 20.055C59.0266 19.8807 59.1137 19.7064 59.288 19.6193C59.4623 19.5321 59.6366 19.445 59.8109 19.445H59.898V19.0093H60.2466V19.445ZM59.8109 19.7936C59.6366 19.7936 59.4623 19.8807 59.288 20.055C59.2009 20.2293 59.1137 20.4036 59.1137 20.7522C59.1137 21.0136 59.2009 21.275 59.288 21.4493C59.3751 21.6236 59.5494 21.7108 59.8109 21.7108H59.898L59.8109 19.7936ZM60.2466 19.7936V21.6236H60.3337C60.508 21.6236 60.6823 21.5365 60.8566 21.3622C60.9437 21.1879 61.0309 21.0136 61.0309 20.665C61.0309 20.4036 60.9437 20.1422 60.8566 19.9679C60.6823 19.8807 60.508 19.7936 60.2466 19.7936Z" fill="#555555"/>
<path id="Vector_22" d="M63.5583 19.1836H63.9069V22.2337H63.5583V19.8807L62.3383 22.2337H61.9897V19.1836H62.3383V21.5365L63.5583 19.1836Z" fill="#555555"/>
<path id="Vector_23" d="M66.7824 22.2337H66.4338V20.8393H65.2138V22.2337H64.8652V19.1836H65.2138V20.4908H66.4338V19.1836H66.7824V22.2337Z" fill="#555555"/>
<path id="Vector_24" d="M68.9616 21.4494H67.9159L67.6545 22.2337H67.2188L68.1773 19.1836H68.5259L69.4845 22.2337H69.0488L68.9616 21.4494ZM68.0031 21.1008H68.8745L68.4388 19.7065L68.0031 21.1008Z" fill="#555555"/>
<path id="Vector_25" d="M72.1857 22.2337H71.8372V20.8393H70.6171V22.2337H70.2686V19.1836H70.6171V20.4908H71.8372V19.1836H72.1857V22.2337Z" fill="#555555"/>
<path id="Vector_26" d="M74.8874 21.2751C74.8874 21.6236 74.8003 21.8851 74.626 22.0594C74.4517 22.2337 74.1902 22.3208 73.9288 22.3208C73.5802 22.3208 73.4059 22.2337 73.2317 21.9722C73.0574 21.7108 72.9702 21.4494 72.9702 21.0136V20.4908C72.9702 20.055 73.0574 19.7936 73.2317 19.5322C73.4059 19.2707 73.6674 19.1836 74.016 19.1836C74.2774 19.1836 74.5388 19.2707 74.7131 19.445C74.8874 19.6193 74.9745 19.8808 74.9745 20.2293H74.626C74.626 19.9679 74.5388 19.7936 74.4517 19.7065C74.3645 19.6193 74.1902 19.5322 74.016 19.5322C73.8417 19.5322 73.6674 19.6193 73.4931 19.7936C73.3188 19.8808 73.2317 20.055 73.2317 20.4036V20.9265C73.2317 21.2751 73.3188 21.4494 73.4059 21.6236C73.4931 21.7979 73.6674 21.8851 73.8417 21.8851C74.0159 21.8851 74.1902 21.7979 74.2774 21.7108C74.3645 21.6236 74.4517 21.4494 74.4517 21.1879H74.8874V21.2751Z" fill="#555555"/>
<path id="Vector_27" d="M77.5016 20.9265C77.5016 21.3622 77.4145 21.6236 77.2402 21.885C77.0659 22.1465 76.8045 22.2336 76.4559 22.2336C76.1073 22.2336 75.933 22.1465 75.6716 21.885C75.4973 21.6236 75.4102 21.3622 75.4102 20.9265V20.3164C75.4102 19.8807 75.4973 19.6193 75.6716 19.3579C75.8459 19.0964 76.1073 19.0093 76.4559 19.0093C76.8045 19.0093 77.0659 19.0964 77.2402 19.3579C77.4145 19.6193 77.5016 19.8807 77.5016 20.3164V20.9265ZM77.0659 20.4036C77.0659 20.055 76.9788 19.8807 76.8916 19.7064C76.8045 19.5321 76.6302 19.445 76.3687 19.445C76.1945 19.445 76.0202 19.5321 75.8459 19.7064C75.8459 19.8807 75.8459 20.055 75.8459 20.4036V20.9265C75.8459 21.275 75.933 21.4493 76.0202 21.6236C76.1073 21.7979 76.2816 21.885 76.543 21.885C76.7173 21.885 76.8916 21.7979 77.0659 21.6236C77.153 21.4493 77.2402 21.275 77.2402 20.9265V20.4036H77.0659Z" fill="#555555"/>
<path id="Vector_28" d="M78.1982 22.2337V19.1836H79.0697C79.3311 19.1836 79.5926 19.2707 79.6797 19.3579C79.854 19.5322 79.854 19.7065 79.854 19.9679C79.854 20.1422 79.854 20.2293 79.7668 20.3165C79.6797 20.4036 79.5926 20.4908 79.5054 20.5779C79.6797 20.5779 79.7668 20.6651 79.854 20.8393C79.9411 20.9265 79.9411 21.1008 79.9411 21.2751C79.9411 21.5365 79.854 21.7979 79.6797 21.8851C79.5054 22.0594 79.3311 22.1465 79.0697 22.1465H78.1982V22.2337ZM78.634 20.4908H79.1568C79.3311 20.4908 79.4183 20.4036 79.5054 20.3165C79.5926 20.2293 79.5926 20.1422 79.5926 19.9679C79.5926 19.7936 79.5926 19.7065 79.5054 19.6193C79.4183 19.5322 79.3311 19.5322 79.1568 19.5322H78.634V20.4908ZM78.634 20.7522V21.8851H79.1568C79.3311 21.8851 79.4183 21.7979 79.5054 21.7108C79.5926 21.6236 79.5926 21.4494 79.5926 21.2751C79.5926 20.9265 79.4183 20.7522 79.1568 20.7522H78.634Z" fill="#555555"/>
<path id="Vector_29" d="M82.1194 21.4494H81.0736L80.8122 22.2337H80.3765L81.3351 19.1836H81.6836L82.6422 22.2337H82.2065L82.1194 21.4494ZM81.1608 21.1008H82.0322L81.5965 19.7065L81.1608 21.1008Z" fill="#555555"/>
<path id="Vector_30" d="M84.647 22.2334V21.0134H84.1241L83.6012 22.2334H83.1655L83.7755 20.9262C83.427 20.7519 83.2527 20.4905 83.2527 20.0548C83.2527 19.7933 83.3398 19.5319 83.5141 19.3576C83.6884 19.1833 83.8627 19.0962 84.2113 19.0962H85.0827V22.1462H84.647V22.2334ZM83.6012 20.0548C83.6012 20.2291 83.6884 20.4034 83.7755 20.4905C83.8627 20.5776 84.037 20.6648 84.1241 20.6648H84.5598V19.4448H84.1241C83.9498 19.4448 83.7755 19.5319 83.6884 19.6191C83.6884 19.7062 83.6012 19.8805 83.6012 20.0548Z" fill="#555555"/>
<path id="Vector_31" d="M87.61 20.8393H87.3486V22.2337H87V19.1836H87.3486V20.5779H87.61L88.4815 19.1836H89.0043L88.0457 20.6651L89.0915 22.2337H88.6557L87.61 20.8393Z" fill="#555555"/>
<path id="Vector_32" d="M91.445 20.9265C91.445 21.3622 91.3578 21.6236 91.1835 21.885C91.0093 22.1465 90.7478 22.2336 90.3992 22.2336C90.0507 22.2336 89.8764 22.1465 89.615 21.885C89.4407 21.6236 89.3535 21.3622 89.3535 20.9265V20.3164C89.3535 19.8807 89.4407 19.6193 89.615 19.3579C89.7892 19.0964 90.0507 19.0093 90.3992 19.0093C90.7478 19.0093 91.0093 19.0964 91.1835 19.3579C91.3578 19.6193 91.445 19.8807 91.445 20.3164V20.9265ZM91.0964 20.4036C91.0964 20.055 91.0093 19.8807 90.9221 19.7064C90.835 19.5321 90.6607 19.445 90.3992 19.445C90.225 19.445 90.0507 19.5321 89.8764 19.7064C89.7892 19.8807 89.7021 20.1422 89.7021 20.4036V20.9265C89.7021 21.275 89.7892 21.4493 89.8764 21.6236C89.9635 21.7979 90.1378 21.885 90.3992 21.885C90.5735 21.885 90.7478 21.7979 90.9221 21.6236C91.0093 21.4493 91.0964 21.275 91.0964 20.9265V20.4036Z" fill="#555555"/>
<path id="Vector_33" d="M92.5771 21.0136V22.2337H92.2285V19.1836H93.1871C93.4485 19.1836 93.71 19.2707 93.8843 19.445C94.0585 19.6193 94.1457 19.8808 94.1457 20.1422C94.1457 20.4036 94.0585 20.6651 93.8843 20.8393C93.71 21.0136 93.5357 21.1008 93.1871 21.1008H92.5771V21.0136ZM92.5771 20.6651H93.1871C93.3614 20.6651 93.4485 20.5779 93.6228 20.4908C93.71 20.4036 93.7971 20.2293 93.7971 20.055C93.7971 19.8808 93.71 19.7065 93.6228 19.6193C93.5357 19.5322 93.3614 19.445 93.2742 19.445H92.6642V20.6651H92.5771Z" fill="#555555"/>
<path id="Vector_34" d="M96.673 22.2337H96.3245V19.5322H95.1044V22.2337H94.7559V19.1836H96.7602V22.2337H96.673Z" fill="#555555"/>
<path id="Vector_35" d="M99.4611 20.9265C99.4611 21.3622 99.374 21.6236 99.1997 21.885C99.0254 22.1465 98.7639 22.2336 98.4154 22.2336C98.0668 22.2336 97.8925 22.1465 97.6311 21.885C97.4568 21.6236 97.3696 21.3622 97.3696 20.9265V20.3164C97.3696 19.8807 97.4568 19.6193 97.6311 19.3579C97.8054 19.0964 98.0668 19.0093 98.4154 19.0093C98.7639 19.0093 99.0254 19.0964 99.1997 19.3579C99.374 19.6193 99.4611 19.8807 99.4611 20.3164V20.9265ZM99.1125 20.4036C99.1125 20.055 99.0254 19.8807 98.9382 19.7064C98.8511 19.5321 98.6768 19.445 98.4154 19.445C98.2411 19.445 98.0668 19.5321 97.8925 19.7064C97.8054 19.8807 97.7182 20.1422 97.7182 20.4036V20.9265C97.7182 21.275 97.8054 21.4493 97.8925 21.6236C97.9796 21.7979 98.1539 21.885 98.4154 21.885C98.5897 21.885 98.7639 21.7979 98.9382 21.6236C99.0254 21.4493 99.1125 21.275 99.1125 20.9265V20.4036Z" fill="#555555"/>
<path id="Vector_36" d="M100.596 21.0136V22.2337H100.247V19.1836H101.206C101.467 19.1836 101.729 19.2707 101.903 19.445C102.077 19.6193 102.164 19.8808 102.164 20.1422C102.164 20.4036 102.077 20.6651 101.903 20.8393C101.729 21.0136 101.554 21.1008 101.206 21.1008H100.596V21.0136ZM100.596 20.6651H101.206C101.38 20.6651 101.467 20.5779 101.641 20.4908C101.729 20.4036 101.816 20.2293 101.816 20.055C101.816 19.8808 101.729 19.7065 101.641 19.6193C101.554 19.5322 101.38 19.445 101.293 19.445H100.683V20.6651H100.596Z" fill="#555555"/>
<path id="Vector_37" d="M104.168 21.4494H103.122L102.861 22.2337H102.425L103.383 19.1836H103.732L104.691 22.2337H104.255L104.168 21.4494ZM103.209 21.1008H104.081L103.645 19.7065L103.209 21.1008Z" fill="#555555"/>
<path id="Vector_38" d="M105.301 19.1836H105.65V21.8851H106.87V19.1836H107.218V21.8851H107.48V22.9308H107.218V22.2337H105.388V19.1836H105.301Z" fill="#555555"/>
<path id="Vector_39" d="M109.745 19.1836H110.093V22.2337H109.745V19.8807L108.525 22.2337H108.176V19.1836H108.525V21.5365L109.745 19.1836Z" fill="#555555"/>
<path id="Vector_40" d="M112.272 22.2334V21.0134H111.749L111.226 22.2334H110.79L111.4 20.9262C111.051 20.7519 110.877 20.4905 110.877 20.0548C110.877 19.7933 110.964 19.5319 111.139 19.3576C111.313 19.1833 111.487 19.0962 111.836 19.0962H112.707V22.1462H112.272V22.2334ZM111.313 20.0548C111.313 20.2291 111.4 20.4034 111.487 20.4905C111.574 20.5776 111.749 20.6648 111.836 20.6648H112.272V19.4448H111.836C111.661 19.4448 111.487 19.5319 111.4 19.6191C111.4 19.7062 111.313 19.8805 111.313 20.0548Z" fill="#555555"/>
</g>
</g>
</svg>
