<svg width="112" height="23" viewBox="0 0 112 23" fill="none" xmlns="http://www.w3.org/2000/svg">
<g id="Group 635">
<path id="Vector" d="M107.217 4.55469L103.354 9.05209V4.55469H100.559V15.908H103.354V11.1281L107.489 15.908H111.101L106.015 9.95932L110.733 4.55469H107.217Z" fill="#555555"/>
<path id="Vector_2" d="M96.0594 8.78897H92.0837V4.55469H89.2051V15.908H92.0837V11.4316H96.0594V15.908H98.9365V4.55469H96.0594V8.78897Z" fill="#555555"/>
<g id="Clip path group">
<mask id="mask0_565_2279" style="mask-type:luminance" maskUnits="userSpaceOnUse" x="0" y="0" width="112" height="23">
<g id="clippath">
<path id="Vector_3" d="M111.1 0.5H0V22.8237H111.1V0.5Z" fill="white"/>
</g>
</mask>
<g mask="url(#mask0_565_2279)">
<g id="Group">
<path id="Vector_4" d="M16.2884 10.7193C16.2229 12.7199 15.9652 13.1194 14.8398 13.1194V15.6339H15.2592C18.0634 15.6339 18.7373 14.1853 18.841 10.9663L18.9554 7.40431H21.5842V15.6339H24.3274V4.90967H16.479L16.2884 10.7193Z" fill="#555555"/>
<path id="Vector_5" d="M31.1458 8.16673H29.1651V4.90967H26.4219V15.6339H31.184C34.1757 15.6339 35.2416 13.6912 35.2416 11.8614C35.2416 9.49945 33.7548 8.16521 31.1458 8.16521M30.9369 13.2704H29.1651V10.5455H30.9369C31.89 10.5455 32.4603 10.9648 32.4603 11.8599C32.4603 12.8312 31.9083 13.2704 30.9369 13.2704Z" fill="#555555"/>
<path id="Vector_6" d="M44.1766 4.66154V0.680176H41.4334V4.66154C38.2907 4.92839 36.1758 7.15771 36.1758 10.2623C36.1758 13.3669 38.2907 15.616 41.4334 15.8829V19.9222H44.1766V15.8829C47.3193 15.6358 49.4343 13.3867 49.4343 10.2623C49.4343 7.13788 47.3193 4.90856 44.1766 4.66154ZM41.4334 13.2921C39.9101 13.0817 38.9571 11.9396 38.9571 10.2638C38.9571 8.58801 39.9101 7.44438 41.4334 7.23547V13.2937V13.2921ZM44.1766 13.2921V7.23395C45.6999 7.44285 46.653 8.58648 46.653 10.2623C46.653 11.9381 45.6999 13.0817 44.1766 13.2906" fill="#555555"/>
<path id="Vector_7" d="M59.7221 12.3386V8.73848C59.7221 6.10965 58.0463 4.45215 55.2269 4.45215C52.4074 4.45215 50.7697 6.20572 50.6356 8.034H53.4169C53.5114 7.6345 53.9307 6.94832 55.2269 6.94832C56.2943 6.94832 56.9789 7.44389 56.9789 8.73848H54.254C51.8158 8.73848 50.3672 10.0148 50.3672 12.148C50.3672 14.2813 51.9515 15.9007 54.2342 15.9007C55.9085 15.9007 56.8386 15.1093 57.2442 14.51C57.6056 15.2343 58.4062 15.6338 59.4537 15.6338H60.4068V13.1575C59.9112 13.1575 59.7206 12.9287 59.7206 12.3386M56.9774 11.6342C56.9774 12.8723 56.1006 13.5768 54.9585 13.5768C53.9673 13.5768 53.1866 13.2154 53.1866 12.148C53.1866 11.0806 54.0436 10.9297 54.7862 10.9297H56.9774V11.6342Z" fill="#555555"/>
<path id="Vector_8" d="M71.4775 6.43341H68.411V3.40507H75.5168V0.680176H65.5352V15.6343H71.479C74.7742 15.6343 76.6604 13.9966 76.6604 10.9866C76.6604 8.14885 74.7742 6.43341 71.479 6.43341M71.3463 12.9292H68.4125V9.04241H71.3463C72.8697 9.04241 73.7281 9.74689 73.7281 10.9851C73.7281 12.2232 72.8712 12.9277 71.3463 12.9277" fill="#555555"/>
<path id="Vector_9" d="M87.1557 12.3386V8.73848C87.1557 6.10965 85.4799 4.45215 82.6605 4.45215C79.841 4.45215 78.2033 6.20572 78.0692 8.034H80.8505C80.945 7.6345 81.3643 6.94832 82.6605 6.94832C83.7278 6.94832 84.4125 7.44389 84.4125 8.73848H81.6876C79.2494 8.73848 77.8008 10.0148 77.8008 12.148C77.8008 14.2813 79.3851 15.9007 81.6678 15.9007C83.3421 15.9007 84.2722 15.1093 84.6778 14.51C85.0392 15.2343 85.8398 15.6338 86.8873 15.6338H87.8403V13.1575C87.3448 13.1575 87.1542 12.9287 87.1542 12.3386M84.411 11.6342C84.411 12.8723 83.5342 13.5768 82.3921 13.5768C81.4009 13.5768 80.6202 13.2154 80.6202 12.148C80.6202 11.0806 81.4772 10.9297 82.2198 10.9297H84.411V11.6342Z" fill="#555555"/>
<path id="Vector_10" d="M14.669 19.7754H0V22.8236H14.669V19.7754Z" fill="#555555"/>
<path id="Vector_11" d="M10.0012 2.73237C9.58183 1.48505 9.09998 0.5 7.44858 0.5C5.79717 0.5 5.2833 1.48047 4.84414 2.73237L0.304688 15.6341H3.31473L4.36229 12.5676H10.1536L11.125 15.6341H14.3256L10.0012 2.73237ZM5.23908 9.9769L7.29609 3.86228H7.37233L9.31498 9.9769H5.23755H5.23908Z" fill="#555555"/>
</g>
</g>
</g>
</g>
</svg>
